<?xml version="1.0" encoding="utf-8"?>
<!-- Generator: Adobe Illustrator 27.5.0, SVG Export Plug-In . SVG Version: 6.00 Build 0)  -->
<svg version="1.1" xmlns="http://www.w3.org/2000/svg" xmlns:xlink="http://www.w3.org/1999/xlink" x="0px" y="0px"
	 viewBox="0 0 750 500" style="enable-background:new 0 0 750 500;" xml:space="preserve">
<g id="BACKGROUND">
	<g>
		<rect style="fill-rule:evenodd;clip-rule:evenodd;fill:#B0EAE8;" width="750" height="500"/>
	</g>
	<g>
		<g>
			
				<linearGradient id="SVGID_1_" gradientUnits="userSpaceOnUse" x1="392.6126" y1="216.232" x2="528.1782" y2="-43.6872" gradientTransform="matrix(-1 0 0 1 750.0001 0)">
				<stop  offset="0" style="stop-color:#F1D8D1"/>
				<stop  offset="1" style="stop-color:#F7E9E8"/>
			</linearGradient>
			<rect x="0.001" y="0.001" style="fill-rule:evenodd;clip-rule:evenodd;fill:url(#SVGID_1_);" width="749.998" height="500"/>
			<rect y="0.001" style="fill-rule:evenodd;clip-rule:evenodd;fill:#FFFFFF;" width="750" height="500"/>
		</g>
	</g>
</g>
<g id="OBJECTS">
	<g>
		<g>
			
				<linearGradient id="SVGID_00000165233507044677633200000003811815750566922903_" gradientUnits="userSpaceOnUse" x1="326.1449" y1="373.521" x2="179.1526" y2="322.1793">
				<stop  offset="0" style="stop-color:#985D3B"/>
				<stop  offset="1" style="stop-color:#542600"/>
			</linearGradient>
			<path style="fill-rule:evenodd;clip-rule:evenodd;fill:url(#SVGID_00000165233507044677633200000003811815750566922903_);" d="
				M181.044,292.419c-2.465,10.188,2.112,24.413,0.365,35.209l11.641,21.907c0,0,7.539,9.443,17.392,14.23
				c9.854,4.789,45.068,4.115,45.068,4.115s-1.813-0.766,4.866,1.847c2.642,1.032,5.277,1.163,8.468,1.309
				c4.883,0.22,10.678-0.736,12.697-1.461c1.427-0.511,3.842-1.507,2.716-2.373c-1.512-1.163-7.732-1.263-7.732-1.263
				s-0.958-0.717,0.217-0.772c3.247-0.155,11.617-0.27,13.579-3.011c0.828-1.155,0.596-2.384-1.049-2.395
				c-14.742-0.085-11.104-0.853-11.104-0.853s12.021-1.364,12.355-4.496c0.334-3.134-12.797-1.757-12.797-1.757
				s6.394-1.653,10.039-2.733c3.645-1.08,2.42-5.487-2.925-4.538c-8.975,1.595-9.576,1.014-15.945,1.96c0,0-0.537-0.438,2.302-4.872
				c2.839-4.434-1.551-5.412-1.551-5.412s-6.547,5.924-9.052,8.117c-2.505,2.193-4.589,6.345-4.589,6.345
				s-18.561-5.812-25.076-8.958c-6.512-3.148-16.366-5.933-16.366-5.933s-13.357-15.803-19.87-30.307
				C190.254,296.446,186.514,293.082,181.044,292.419z"/>
			<path style="fill-rule:evenodd;clip-rule:evenodd;fill:#985D3B;" d="M166.98,221.196c0.161-2.564,0.795-4.879,2.573-6.165
				c2.249-1.627,5.786-1.608,6.495,1.63c1.269,5.804-3.265,19.949-6.711,18.679C165.892,234.071,166.98,221.196,166.98,221.196z"/>
			<path style="fill-rule:evenodd;clip-rule:evenodd;fill:#734326;" d="M168.655,221.891c-0.573,3.762,0.406,8.018,2.779,7.874
				c1.915-0.118,3.737-7.476,2.632-10.653C173.085,216.286,169.227,218.124,168.655,221.891z"/>
			<path style="fill-rule:evenodd;clip-rule:evenodd;fill:#F0CA0C;" d="M126.178,283.758c-17.062,7.233-26.216,10.962-31.931,17.058
				c-9.411,10.038-9.492,24.014-20.206,52.308l17.136,3.717l20.313,2.902c-0.455,0,3.285,12.744,4.541,23.205
				c0.744,6.19-5.637,11.581-5.993,13.064c-0.453,1.892-4.971,2.073-6.796,4.837c-2.438,3.691,0.994,7.132,0.994,7.132
				c21.029,21.755,75.88,23.464,91.035,2.539c0,0,8.533-5.272,7.988-14.933c-0.156-2.764-8.684-6.887-8.906-10.121
				c-0.601-8.765,0.352-20.442-0.861-30.7c13.414-3.26,21.036-28.029,21.036-28.029c-3.79-4.253-5.974-5.568-8.75-10.217
				c-18.204-30.502-30.35-28.834-48.014-33.306c-0.937,0.571-1.711,1.335-2.333,2.266
				C145.999,283.216,135.739,283.37,126.178,283.758z"/>
			<path style="fill-rule:evenodd;clip-rule:evenodd;fill:#269347;" d="M77.47,343.549c-1.013,2.998-2.144,6.182-3.429,9.574
				l17.136,3.717l20.313,2.902c-0.207,0,0.455,2.64,1.354,6.504c1.348-0.138,2.238-0.266,2.499-0.352
				c1.632-0.544-1.089-15.053-1.089-15.053L77.47,343.549z"/>
			<path style="fill-rule:evenodd;clip-rule:evenodd;fill:#269347;" d="M193.75,357.338c-0.073-0.865-0.159-1.725-0.259-2.572
				c13.414-3.26,21.036-28.029,21.036-28.029c-2.164-2.427-3.803-3.899-5.328-5.577c-2.854,8.353-11.115,23.114-20.956,24.244
				C181.298,346.2,187.458,351.962,193.75,357.338z"/>
			<path style="fill-rule:evenodd;clip-rule:evenodd;fill:#269347;" d="M126.178,283.758c-5.596,2.373-10.341,4.368-14.393,6.193
				c16.528,13.183,30.368,17.551,44.043,11.838c7.474-3.12,12.477-9.796,15.557-15.468c-4.282-1.106-8.741-1.873-13.621-3.107
				c-0.937,0.571-1.711,1.335-2.333,2.266C145.999,283.216,135.739,283.37,126.178,283.758z"/>
			<path style="fill-rule:evenodd;clip-rule:evenodd;fill:#269347;" d="M103.699,358.629l7.791,1.113
				c-0.236,0,0.655,3.42,1.742,8.172c1.575,0.149,3.313,0.293,5.239,0.43c39.962,2.854,64.603-4.874,75.393-9.502
				c-0.093-1.377-0.215-2.738-0.372-4.076c2.233-0.543,4.305-1.684,6.21-3.205l-3.795-27.828
				c-15.463,16.743-70.19,16.665-86.866,12.332c0,0,1.575,12.075-3.098,19.601C105.274,356.741,104.484,357.726,103.699,358.629z"/>
			<path style="fill-rule:evenodd;clip-rule:evenodd;fill:#D5A835;" d="M97.679,357.77l11.982,1.711
				c2.897-1.528,0.1-3.826,0.1-3.826c0.726-40.259-2.176-36.269-2.176-36.269S107.188,339.215,97.679,357.77z"/>
			<path style="fill-rule:evenodd;clip-rule:evenodd;fill:#258241;" d="M97.679,357.77l11.982,1.711
				c2.897-1.528,0.1-3.826,0.1-3.826c0.034-1.998,0.066-3.887,0.094-5.684l-8.025-1.591
				C100.632,351.524,99.257,354.692,97.679,357.77z"/>
			
				<linearGradient id="SVGID_00000010994058803811777570000002741961979941811640_" gradientUnits="userSpaceOnUse" x1="121.2267" y1="340.4184" x2="55.7267" y2="409.9185">
				<stop  offset="0" style="stop-color:#985D3B"/>
				<stop  offset="1" style="stop-color:#542600"/>
			</linearGradient>
			<path style="fill-rule:evenodd;clip-rule:evenodd;fill:url(#SVGID_00000010994058803811777570000002741961979941811640_);" d="
				M79.21,354.121c0.406,3.929,0.711,7.526,1.123,10.788c1.258,9.958,7.84,26.398,20.721,23.264
				c16.518-4.021,31.407-40.837,33.275-42.497c1.647-1.466,9.429-5.856,15.625-10.758c3.645-2.886,8.045-6.303,6.826-8.452
				c-0.099-0.174-0.845-0.868-1.356-0.771c-0.66,0.123-3.359,3.725-3.767,3.418c-0.453-0.343,3.747-4.646,4.19-5.926
				c0.361-1.035-0.842-2.171-1.371-2.09c-0.614,0.097-1.92,1.675-3.283,2.792c-2.142,1.754-4.433,3.302-4.433,3.302
				s7.979-8.252,6.438-9.702c-0.509-0.478-2.174-1.175-3.482,0.225c-3.093,3.314-7.852,6.395-7.852,6.395s7.292-6.853,7.198-9.015
				c-0.043-1.011-1.884-1.643-2.938-1.05c-1.591,0.897-2.672,2.537-4.029,3.681c-4.933,4.153-9.062,8.364-14.468,6.202
				c-0.906-0.361-6.438-7.616-10.063-6.801c-3.628,0.815-2.54,2.357,0.362,5.622c3.632,4.088,1.723,6.801,1.723,9.249
				c0,2.448,1.631,6.438,1.631,6.438l-20.582,19.133L79.21,354.121z"/>
			<path style="fill-rule:evenodd;clip-rule:evenodd;fill:#814C2E;" d="M114.754,261.246c2.046,8.733,5.43,15.401,8.158,21.589
				c0.608,1.378,0.046,1.625-0.589,2.223c-1.893,1.775-6.937,1.667-3.727,3.917c26.689,18.708,41.749,8.111,44.228-3.992
				c0.414-2.019-4.811-2.142-4.749-4.245c0.153-5.169,3.615-11.301,5.866-15.916C172.882,246.488,114.754,261.246,114.754,261.246z"
				/>
			<path style="fill-rule:evenodd;clip-rule:evenodd;fill:#734326;" d="M114.754,261.246c1.561,6.66,3.898,12.119,6.131,17.08
				c0.644,1.434,20.732,10.396,27.416,10.033c7.566-0.41,9.583-1.133,9.775-7.622c0.153-5.169,3.615-11.301,5.866-15.916
				C172.882,246.488,114.754,261.246,114.754,261.246z"/>
			<path style="fill-rule:evenodd;clip-rule:evenodd;fill:#6F3F22;" d="M164.623,186.279c5.521,2.538,6.322,5.988,6.119,13.359
				c-0.153,5.544-3.394,24.097-3.394,24.097l-10.785-33.928L164.623,186.279z"/>
			<path style="fill-rule:evenodd;clip-rule:evenodd;fill:#985D3B;" d="M96.438,231.351c-8.705-2.176-13.964,5.44-4.896,14.688
				c9.066,9.249,13.6,3.626,13.6,3.626s3.856,12.227,13.782,21.581c19.405,18.288,57.459,3.108,52.465-32.168
				c-2.468-17.43-7.351-48.447-11.118-50.525c-5.26-2.901-55.492,10.337-56.4,13.238c-0.905,2.902-0.905,20.493-0.905,20.493
				l-1.994,13.419L96.438,231.351z"/>
			<path style="fill-rule:evenodd;clip-rule:evenodd;fill:#3C1E00;" d="M106.411,202.517c1.27,16.503,1.27,16.503,1.27,16.503
				l-5.441,20.311c0,0-23.937-33.912-19.222-41.347c4.714-7.434,9.067-4.896,9.067-4.896s5.078-16.14,12.332-19.223
				c7.253-3.083,10.518,1.995,10.518,1.995s3.989-6.166,8.885-7.073c4.896-0.907,5.078,3.627,5.078,3.627s10.337-9.975,15.234-7.436
				c4.896,2.539,3.626,7.072,3.626,7.072s10.881-7.798,14.327-4.896c3.446,2.902,0,8.705,0,8.705s2.901-0.544,5.984,4.533
				C177.305,195.604,114.164,201.961,106.411,202.517z"/>
			<path style="fill-rule:evenodd;clip-rule:evenodd;fill:#FFFFFF;" d="M130.9,224.735c4.058,4.765,2.487,8.901-3.516,9.8
				c-4.733,0.708-10.581-0.894-7.132-7.215C121.672,224.721,126.8,223.711,130.9,224.735z"/>
			<path style="fill-rule:evenodd;clip-rule:evenodd;fill:#FFFFFF;" d="M161.199,217.794c1.465,1.719,3.375,5.644,1.156,8.297
				c-2.22,2.652-7.106,2.116-8.048,0.894C153.364,225.763,154.303,216.073,161.199,217.794z"/>
			<path style="fill-rule:evenodd;clip-rule:evenodd;fill:#3C1E00;" d="M149.857,224.285c1.308-3.794,3.708-8.946,8.741-8.137
				c3.173,0.51,4.822,3.141,5.894,5.863l-1.153-1.387c-5.401-6.315-9.593-2.829-11.585,4.06c-0.109,0.524-0.624,0.858-1.147,0.749
				C150.082,225.323,149.748,224.808,149.857,224.285z"/>
			<path style="fill-rule:evenodd;clip-rule:evenodd;fill:#3C1E00;" d="M132.356,228.629c-1.211-4.546-10.871-6.418-13.008,0.889
				c-0.356,1.217-0.516,3.006-0.662,4.367c-2.794-12.688,13.064-13.618,15.568-5.647c0.109,0.524-0.229,1.037-0.753,1.145
				C132.976,229.491,132.464,229.153,132.356,228.629z"/>
			<path style="fill-rule:evenodd;clip-rule:evenodd;fill:#3C1E00;" d="M155.757,216.911c-2.532,0.571-4.016,3.544-3.318,6.641
				c0.699,3.097,3.317,5.144,5.849,4.573c2.531-0.571,4.016-3.544,3.317-6.642C160.907,218.387,158.289,216.34,155.757,216.911z"/>
			<path style="fill-rule:evenodd;clip-rule:evenodd;fill:#3C1E00;" d="M124.921,223.768c-2.531,0.57-4.017,3.544-3.317,6.641
				c1.665,7.383,10.832,5.314,9.165-2.068C130.071,225.244,127.453,223.196,124.921,223.768z"/>
			<path style="fill-rule:evenodd;clip-rule:evenodd;fill:#3C1E00;" d="M125.713,210.472c1.481,5.2,2.224,6.671-2.771,7.696
				c-4.996,1.025-12.259,4.714-12.259,4.714S111.526,212.546,125.713,210.472z"/>
			<path style="fill-rule:evenodd;clip-rule:evenodd;fill:#3C1E00;" d="M145.605,205.982c0.412,3.186,0.801,6.275,3.673,5.832
				c2.872-0.443,10.988-2.172,10.988-2.172S157.765,204.468,145.605,205.982z"/>
			<path style="fill-rule:evenodd;clip-rule:evenodd;fill:#FFFFFF;" d="M159.889,217.763c-0.958-0.491-1.905-0.555-2.115-0.144
				c-0.213,0.411,0.393,1.143,1.35,1.634c0.958,0.491,1.906,0.556,2.116,0.145C161.452,218.986,160.847,218.254,159.889,217.763z"/>
			<path style="fill-rule:evenodd;clip-rule:evenodd;fill:#FFFFFF;" d="M129.666,225.638c-0.959-0.49-1.905-0.555-2.115-0.143
				c-0.212,0.411,0.392,1.143,1.351,1.634c0.958,0.491,1.906,0.556,2.116,0.144C131.229,226.862,130.625,226.13,129.666,225.638z"/>
			<path style="fill-rule:evenodd;clip-rule:evenodd;fill:#734326;" d="M151.723,240.165c-3.971,1.573-7.985,1.421-10.286,1.05
				c-2.301-0.372,0.541,5.96,5.541,5.947C151.98,247.146,156.072,239.927,151.723,240.165z"/>
			<path style="fill-rule:evenodd;clip-rule:evenodd;fill:#3C1E00;" d="M148.376,245.667c1.198-0.755,4.492-2.671,5.008-4.362
				l-0.026-1.642c-3.853-3.145-4.733-4.236-6.166-8.776c-0.359-1.137-0.204-0.799-0.651-1.558
				c-0.749,4.436,1.983,8.251,4.957,11.212c-1.472,1.778-1.836,1.738-4.122,2.981c-0.593,0.277-0.848,0.982-0.572,1.573
				C147.081,245.687,147.785,245.943,148.376,245.667z"/>
			<path style="fill-rule:evenodd;clip-rule:evenodd;fill:#FFFFFF;" d="M152.703,254.324c-3.395,0.803-11.505,1.777-16.828-1.275
				c-5.324-3.053-2.602,11.29,6.842,11.123C152.161,264.003,155.48,257.387,152.703,254.324z"/>
			<path style="fill-rule:evenodd;clip-rule:evenodd;fill:#FFFFFF;" d="M146.488,235.786c-0.124,0.152-0.207,0.561-0.2,1.017
				c0.012,0.679,0.288,1.833,0.771,2.303c0.517,0.505,1.249,0.296,1.466,0.027c0.348-0.428-0.41-0.989-0.938-1.734
				C147.01,236.584,146.634,235.607,146.488,235.786z"/>
			<path style="fill-rule:evenodd;clip-rule:evenodd;fill:#734326;" d="M98.824,237.819c2.489,3.023,3.653,7.382,1.17,8.623
				c-2.003,1.002-7.585-4.503-8.073-7.973C91.484,235.383,96.334,234.794,98.824,237.819z"/>
			<path style="fill-rule:evenodd;clip-rule:evenodd;fill:#734326;" d="M141.116,268.183c2.42,0.582,4.721,0.166,6.018-0.235
				c1.297-0.403,0.176,3.48-2.709,3.882C141.54,272.23,138.59,268.403,141.116,268.183z"/>
			<path style="fill-rule:evenodd;clip-rule:evenodd;fill:#D5A835;" d="M190.821,329.159c0.666,5.575,1.238,11.177,1.718,16.051
				c0.493,5.003,0.887,9.241,1.191,11.9c-0.067-0.789-0.147-1.569-0.239-2.344c2.007-0.488,3.885-1.457,5.627-2.753
				c4.741-3.528,8.474-9.476,11.079-14.715c-1.538-1.625-3.014-3.612-4.322-6.033c-1.907-3.526-4.44-7.929-7.063-12.288
				c-7.366-12.227-15.463-24.102-12.523-15.277C188.119,309.185,189.623,319.131,190.821,329.159z"/>
			<path style="fill-rule:evenodd;clip-rule:evenodd;fill:#258241;" d="M192.43,344.102l0.11,1.107
				c0.493,5.003,0.887,9.241,1.191,11.9c-0.067-0.789-0.147-1.569-0.239-2.344c2.007-0.488,3.885-1.457,5.627-2.753
				c4.741-3.528,8.474-9.476,11.079-14.715c-1.538-1.625-3.014-3.612-4.322-6.033c-0.22-0.407-0.448-0.825-0.684-1.253
				C202.008,335.727,197.541,341.532,192.43,344.102z"/>
			<path style="fill-rule:evenodd;clip-rule:evenodd;fill:#6F3F22;" d="M84.81,209.537c3.182,7.58,8.852,16.833,12.86,22.998
				c2.647,4.073,4.569,6.796,4.569,6.796l5.441-20.311c0,0,0-0.363-1.235-16.424C100.97,202.989,90.171,205.679,84.81,209.537z"/>
			<path style="fill-rule:evenodd;clip-rule:evenodd;fill:#3C1E00;" d="M93.053,194.173c5.785-0.984,60.37-21.006,61.13-22.32
				c4.49-7.758,0.113-13.845-5.297-13.299c-1.149,0.116-2.423,0.592-3.618,1.376c-1.264-2.208-3.602-3.449-6.174-3.189
				c-1.82,0.184-3.949,1.269-5.583,3.045c-0.639-2.045-2.35-3.432-4.61-3.432c-2.607,0-5.168,1.845-6.464,4.419
				c-0.536-0.084-1.092-0.099-1.66-0.042c-1.338,0.135-2.844,0.757-4.196,1.783c-1.086-1.228-2.601-1.99-4.276-1.99
				c-3.232,0-5.865,2.834-5.981,6.377c-1.656,0.156-3.134,0.923-4.207,2.072c-0.948-0.394-2.004-0.557-3.103-0.446
				c-3.029,0.306-6.917,3.109-7.94,7.446c-0.761,0.139-1.514,0.34-2.242,0.607c-4.573,1.672-8.877,6.636-6.951,11.83
				c-0.933,1.116-1.493,2.553-1.493,4.121c0,3.556,2.881,6.438,6.437,6.438C89.814,198.97,92.327,196.934,93.053,194.173z"/>
		</g>
		<g>
			<path style="fill-rule:evenodd;clip-rule:evenodd;fill:#F0CA0C;" d="M183.716,147.007c30.175,0,54.788-17.024,54.788-37.898
				c0-20.873-24.613-37.897-54.788-37.897c-30.176,0-54.789,17.024-54.789,37.897C128.927,129.983,153.54,147.007,183.716,147.007z"
				/>
			<path style="fill-rule:evenodd;clip-rule:evenodd;fill:#F0CA0C;" d="M207.55,135.11c-7.871,14.904-21.456,21.251-38.722,24.991
				c0,0,5.493-5.712,6.316-12.852c0.825-7.141-0.274-9.521-0.274-9.521L207.55,135.11z"/>
			<text transform="matrix(1 0 0 1 158.3941 119.6651)"><tspan x="0" y="0" style="fill:#FFFFFF; font-family:'OpenSans-Bold'; font-size:25.8117px;">O</tspan><tspan x="20.543" y="0" style="fill:#FFFFFF; font-family:'OpenSans-Bold'; font-size:25.8117px;">lá</tspan></text>
		</g>
		<g>
			
				<linearGradient id="SVGID_00000056405422427610611480000005024295304069587132_" gradientUnits="userSpaceOnUse" x1="249.8543" y1="346.5616" x2="322.8548" y2="445.0622">
				<stop  offset="0" style="stop-color:#985D3B"/>
				<stop  offset="1" style="stop-color:#542600"/>
			</linearGradient>
			<path style="fill-rule:evenodd;clip-rule:evenodd;fill:url(#SVGID_00000056405422427610611480000005024295304069587132_);" d="
				M229.213,317.852c5.681,6.98,12.109,14.938,17.969,21.646l10.7-15.232c0,0,11.787,9.068,17.045,18.498
				c-5.957,16.596-32.683,39.327-44.716,14.569c-5.857-12.052-9.182-26.226-12.023-34.146c-2.854-2.236-7.77-6.132-14.205-10.655
				c-8.181-5.749-4.78-19.045-4.184-22.395c0.303-1.702,2.313-1.425,3.078,0.847c0.738,2.195,0.027,6.94,0.908,9.408
				c1.15,3.224,0.408-5.703,1.084-9.549c0.378-2.148,3.018-2.264,3.697,0.551c0.789,3.271,0.281,8.035,1.058,10.136
				c0.344-5.919-0.41-10.682,2.044-9.992c1.8,0.507,1.658,6.928,1.936,11.816c0.017,0.289,0.038,0.573,0.064,0.853
				c0.247,0.066,0.402,0.075,0.492-0.059c0.355-0.522,0.063-3.362,0.035-6.438c-0.025-2.936,1.101-4.89,2.79-2.393
				c1.072,1.583,0.202,4.938,2.405,8.553c2.268,3.718,2.684,4.663,4.276,6.14C228.198,314.212,226.685,312.006,229.213,317.852z"/>
			
				<path style="fill-rule:evenodd;clip-rule:evenodd;fill:#814C2E;stroke:#20201E;stroke-width:0.5669;stroke-miterlimit:22.9256;" d="
				M274.486,238.074c-2.63,0.906-5.35,7.435-1.18,13.511C277.477,257.659,274.486,238.074,274.486,238.074z"/>
			<path style="fill-rule:evenodd;clip-rule:evenodd;fill:#F0CA0C;" d="M273.216,259.746c2.247,0,4.08-1.833,4.08-4.081
				c0-2.246-1.833-4.079-4.08-4.079c-2.247,0-4.08,1.833-4.08,4.079C269.136,257.913,270.969,259.746,273.216,259.746z"/>
			<path style="fill-rule:evenodd;clip-rule:evenodd;fill:#A81D21;" d="M334.348,296.438c2.815,1.168,5.035,3.246,7.521,3.455
				c14.874,1.252,17.862,17.191,29.566,38.64c0.775,1.42-0.497,3.953,0.361,5.419l-22.578,11.605c0,0-17.046-32.641-18.134-35.544
				C329.996,317.112,334.348,296.438,334.348,296.438z"/>
			
				<path style="fill-rule:evenodd;clip-rule:evenodd;fill:#3C1E00;stroke:#20201E;stroke-width:0.5669;stroke-miterlimit:22.9256;" d="
				M278.205,253.405c2.177,23.575,6.166,33.731,32.279,38.084C336.598,295.84,278.205,253.405,278.205,253.405z"/>
			
				<path style="fill-rule:evenodd;clip-rule:evenodd;fill:#3C1E00;stroke:#20201E;stroke-width:0.5669;stroke-miterlimit:22.9256;" d="
				M282.164,217.825c-1.47,19.137,6.067,41.828,16.091,53.923c10.024,12.095,26.825,21.355,26.825,21.355
				s36.963-15.75,34.549-59.619C357.215,189.615,298.636,208.742,282.164,217.825z"/>
			<path style="fill-rule:evenodd;clip-rule:evenodd;fill:#985D3B;" d="M370.799,342.228c3.083,10.337,2.357,7.798,2.357,10.52
				c0,2.719-9.974,8.886-9.974,8.886s-9.067-0.363-9.067-3.81C354.115,354.378,358.468,344.042,370.799,342.228z"/>
			<path style="fill-rule:evenodd;clip-rule:evenodd;fill:#A81D21;" d="M276.138,296.438c-9.206,2.686-16.419,17.726-20.837,25.869
				c-1.702,3.139-3.556,7.591-3.556,7.591l22.396,10.789L276.138,296.438z"/>
			<path style="fill-rule:evenodd;clip-rule:evenodd;fill:#F0CA0C;" d="M253.68,324.863c-1.19,1.628-2.478,5.307-2.478,5.307
				l16.573,11.061c0.368-2.493,1.703-8.164,1.703-8.164L253.68,324.863z"/>
			<path style="fill-rule:evenodd;clip-rule:evenodd;fill:#C10016;" d="M294.833,289.259c-12.696,5.079-19.586,7.254-19.586,7.254
				s-3.989,13.42-12.329,28.29c-8.344,14.87,0.724,22.486,6.164,32.643c5.44,10.156-15.959,27.928-15.959,27.928
				s5.441,33.005,42.073,31.916c36.633-1.088,45.699-21.762,45.699-21.762c-21.165-10.311-16.103-28.064-7.091-43.581
				c4.853-8.356,10.842-19.982,13.257-30.045c2.327-9.699-1.366-16.572-7.328-21.711c-5.186-4.47-12.621-7.849-12.621-7.849
				L294.833,289.259z"/>
			<path style="fill-rule:evenodd;clip-rule:evenodd;fill:#F0CA0C;" d="M294.833,289.259c-12.696,5.079-19.586,7.254-19.586,7.254
				s-0.399,1.343-1.207,3.648c15.628,11.771,39.513,13.608,57.579,6.847c4.618-1.727,10.11-4.21,13.558-6.538
				c-2.937-0.707-5.758-1.85-7.621-2.457c-6.508-2.123-10.443-5.671-10.443-5.671L294.833,289.259z"/>
			<path style="fill-rule:evenodd;clip-rule:evenodd;fill:#A81D21;" d="M312.408,415.029c22.386-5.605,28.486-19.501,28.486-19.501
				c-21.165-10.311-16.103-28.064-7.091-43.581c1.538-2.649,3.19-5.626,4.806-8.777c-2.333-3.898-3.754-6.205-3.754-6.205
				c-4.233,5.946-8.02,10.382-11.185,14.137c-11.926,14.146-29.818,6.521-49.748,4.36c0,0-2.175,9.066,15.597,11.605
				c11.664,1.668,19.421,3.332,23.991,6.434c0.096,2.273,0.434,4.809,1.034,7.712C317.093,393.534,318.394,405.726,312.408,415.029z
				"/>
			<path style="fill-rule:evenodd;clip-rule:evenodd;fill:#814C2E;" d="M330.193,258.255
				c-10.197,27.616-10.197,27.616-10.197,27.616l18.935,12.692c-9.649,3.741-20.472,6.381-29.17,6.195
				c-18.983-0.403-31.942-8.804-29.368-10.043l17.792-8.561c0,0-2.125-12.746-4.533-17.279
				C291.245,264.345,325.943,258.679,330.193,258.255z"/>
			<path style="fill-rule:evenodd;clip-rule:evenodd;fill:#985D3B;" d="M277.784,217.271c-1.452,12.149-7.254,34.455-3.81,42.253
				c3.446,7.798,19.768,23.757,27.928,23.031c8.161-0.726,25.389-10.882,29.016-16.141c3.627-5.259,3.627-5.984,3.627-5.984
				l1.088-1.814c8.311,1.56,15.267-9.768,13.956-15.921c-0.291-1.365-1.719-3.519-2.35-3.664c-2.357-0.544-7.979,3.627-7.979,3.627
				s-0.543-41.71-15.413-47.874C308.974,188.619,279.96,188.619,277.784,217.271z"/>
			<path style="fill-rule:evenodd;clip-rule:evenodd;fill:#FFFFFF;" d="M307.958,229.84c-0.953,1.813-2.221,5.212,0.271,7.118
				c3.614,2.759,12.872-0.538,11.02-5.73C318.278,228.508,311.994,227.805,307.958,229.84z"/>
			<path style="fill-rule:evenodd;clip-rule:evenodd;fill:#814C2E;" d="M277.784,217.271c-0.329,2.758-0.884,6.04-1.503,9.557
				c1.984-2.597,5.524-3.693,7.443-5.39c2.357-2.085,1.087-5.44,4.262-7.707c3.173-2.268,5.531-0.091,7.435-3.537
				c1.903-3.445,1.903-7.797,6.527-5.44c3.694,1.883,9.516,7.994,16.321,10.518c5.622,2.085,10.065,4.262,9.521,9.521
				c-0.544,5.259,2.63,9.339,6.438,11.696c1.523,0.943,3.308,1.872,4.901,2.647c-0.516-10.184-3.056-39.282-15.284-44.352
				C308.974,188.619,279.96,188.619,277.784,217.271L277.784,217.271z M343.25,240.158c-0.298,0.154-0.592,0.316-0.876,0.48
				c0.685,0.302,1.103,0.476,1.103,0.476S343.397,240.774,343.25,240.158z"/>
			<path style="fill-rule:evenodd;clip-rule:evenodd;fill:#FFFFFF;" d="M279.763,229.749c-0.952,1.813-1.858,5.667,0.635,7.571
				c2.494,1.904,6.71,0.454,7.299-0.816C288.287,235.234,285.521,226.847,279.763,229.749z"/>
			<path style="fill-rule:evenodd;clip-rule:evenodd;fill:#814C2E;" d="M291.566,242.975c4.079,1.27,8.069,0.815,10.337,0.272
				c2.267-0.544-0.091,5.984-5.079,6.348C291.838,249.957,287.213,243.065,291.566,242.975z"/>
			<path style="fill-rule:evenodd;clip-rule:evenodd;fill:#814C2E;" d="M344.973,242.249c-3.718,2.63-8.795,9.703-5.714,11.243
				C342.343,255.035,352.226,240.708,344.973,242.249z"/>
			<path style="fill-rule:evenodd;clip-rule:evenodd;fill:#3C1E00;" d="M320.037,185.536c-18.497,9.974-7.979,17.228-12.332,16.321
				c-4.353-0.907-11.607-0.726-13.058,5.44c-2.758,11.725-6.732-2.033-13.057,12.785c-1.985,4.655-4.055-1.11-6.134,11.674
				c-0.659,4.048-1.573,11.629-1.573,11.629s-8.797-9.067-6.801-14.689c1.994-5.622,3.445-3.264,3.627-5.441
				c0.182-2.176-5.077-5.077-1.632-10.336c3.446-5.259,7.436-5.078,7.799-7.253C282.07,174.501,310.646,175.866,320.037,185.536z"/>
			<path style="fill-rule:evenodd;clip-rule:evenodd;fill:#3C1E00;" d="M289.415,233.995c-3.11-5.688-7.387-7.874-10.953-1.307
				l-0.769,1.447c0.327-2.355,0.951-4.479,3.062-5.904c4.431-2.992,8.318,1.569,10.423,4.957c0.221,0.486,0.008,1.061-0.478,1.284
				C290.212,234.696,289.638,234.482,289.415,233.995z"/>
			<path style="fill-rule:evenodd;clip-rule:evenodd;fill:#3C1E00;" d="M305.599,233.61c0.648-7.75,15.121-9.864,14.995,1.886
				c-0.401-1.11-0.986-2.812-1.494-3.713c-3.368-5.989-11.423-2.356-11.563,1.792c0.011,0.535-0.415,0.976-0.95,0.987
				C306.052,234.571,305.61,234.145,305.599,233.61z"/>
			<path style="fill-rule:evenodd;clip-rule:evenodd;fill:#3C1E00;" d="M284.403,227.879c2.354,0,4.262,2.334,4.262,5.213
				c0,2.88-1.908,5.214-4.262,5.214s-4.262-2.334-4.262-5.214C280.141,230.213,282.049,227.879,284.403,227.879z"/>
			<path style="fill-rule:evenodd;clip-rule:evenodd;fill:#3C1E00;" d="M313.056,227.789c2.353,0,4.261,2.335,4.261,5.213
				c0,2.879-1.908,5.213-4.261,5.213c-2.354,0-4.262-2.334-4.262-5.213C308.794,230.124,310.702,227.789,313.056,227.789z"/>
			<path style="fill-rule:evenodd;clip-rule:evenodd;fill:#3C1E00;" d="M309.701,216.183c-0.273,4.896-0.635,6.347,3.989,6.257
				c4.626-0.091,11.788,1.723,11.788,1.723S322.667,215.185,309.701,216.183z"/>
			<path style="fill-rule:evenodd;clip-rule:evenodd;fill:#3C1E00;" d="M293.198,216.183c0.271,2.901,0.543,5.712-2.087,5.894
				c-2.628,0.181-10.154,0.271-10.154,0.271S282.136,217.271,293.198,216.183z"/>
			<path style="fill-rule:evenodd;clip-rule:evenodd;fill:#3C1E00;" d="M311.696,184.811c7.541-3.428,27.62-0.74,34.21,4.376
				c14.407,11.188,16.311,25.457,14.937,37.513c-1.013,8.891-7.098,5.65-14.451,10.305c-3.132,1.982-6.479,8.731-8.922,14.087
				c-0.537,1.176-2.636-13.191-2.381-14.598c0.362-1.994,0.362-1.994,0.362-1.994s-5.44-3.809-6.165-7.074
				c-0.725-3.263,1.451-5.983,0.362-7.797c-1.086-1.813-21.399-9.702-23.755-17.862c-2.357-8.161-1.995-9.34-0.363-11.516
				C307.161,188.075,311.696,184.811,311.696,184.811z"/>
			<path style="fill-rule:evenodd;clip-rule:evenodd;fill:#FFFFFF;" d="M280.685,229.742c0.75-0.626,1.575-0.872,1.844-0.55
				c0.268,0.322-0.121,1.091-0.87,1.716c-0.749,0.626-1.575,0.872-1.843,0.55C279.547,231.137,279.936,230.368,280.685,229.742z"/>
			<path style="fill-rule:evenodd;clip-rule:evenodd;fill:#FFFFFF;" d="M309.248,230.468c0.748-0.626,1.575-0.872,1.843-0.55
				c0.269,0.322-0.121,1.09-0.87,1.715c-0.75,0.626-1.574,0.873-1.843,0.551C308.109,231.862,308.499,231.094,309.248,230.468z"/>
			<path style="fill-rule:evenodd;clip-rule:evenodd;fill:#FFFFFF;" d="M296.457,238.214c0.136,0.143,0.249,0.543,0.277,0.999
				c0.039,0.678-0.149,1.849-0.596,2.354c-0.476,0.542-1.222,0.39-1.461,0.137c-0.379-0.4,0.335-1.017,0.806-1.801
				C295.997,239.048,296.297,238.046,296.457,238.214z"/>
			<path style="fill-rule:evenodd;clip-rule:evenodd;fill:#814C2E;" d="M297.617,268.524c2.42,0.582,4.723,0.167,6.018-0.235
				c1.297-0.403,0.176,3.48-2.708,3.882C298.041,272.571,295.092,268.743,297.617,268.524z"/>
			<path style="fill-rule:evenodd;clip-rule:evenodd;fill:#F0CA0C;" d="M371.138,337.919c0.693,1.244,1.785,5.609,2.2,7.119
				l-23.646,10.276c-0.775-2.337-2.416-4.749-2.416-4.749L371.138,337.919z"/>
			
				<linearGradient id="SVGID_00000075150627543222029170000002302198481539931834_" gradientUnits="userSpaceOnUse" x1="342.5544" y1="342.288" x2="395.0546" y2="411.7885">
				<stop  offset="0" style="stop-color:#985D3B"/>
				<stop  offset="1" style="stop-color:#542600"/>
			</linearGradient>
			<path style="fill-rule:evenodd;clip-rule:evenodd;fill:url(#SVGID_00000075150627543222029170000002302198481539931834_);" d="
				M372.25,347.221c4.17,13.796,9.901,40.758-13.148,37.182c-19.058-2.957-28.338-32.037-32.664-42.021
				c-0.458-1.059-8.997-5.189-15.31-9.684c-4.421-3.147-8.399-7.488-4.976-6.731c0.906,0.2,3.155,1.232,3.215,1.131
				c0.088-0.145-8.429-5.07-7.602-7.22c0.567-1.474,12.157,4.397,12.157,4.397s-8.819-8.419-7.364-9.789
				c1.454-1.369,12.3,7.629,12.3,7.629s-6.738-10.966-3.315-9.94c4.832,1.45,10.997,13.82,16.974,11.843
				c1.776-0.587,6.12-7.191,10.135-7.191c3.774,0-1.204,5.815-2.838,10.318c-1.075,2.967-1.356,4.113-1.356,5.741
				c0,7.122,16.244,17.459,21.757,22.421L372.25,347.221z"/>
			<path style="fill-rule:evenodd;clip-rule:evenodd;fill:#3C1E00;" d="M295.772,248.39c-1.251-0.662-4.681-2.325-5.32-3.973
				l-0.099-1.64c3.604-3.426,4.4-4.58,5.486-9.215c0.272-1.161,0.145-0.813,0.533-1.602c1.08,4.366-1.356,8.376-4.098,11.553
				c1.602,1.663,1.961,1.595,4.335,2.664c0.611,0.23,0.919,0.913,0.689,1.525C297.065,248.313,296.383,248.621,295.772,248.39z"/>
			<path style="fill-rule:evenodd;clip-rule:evenodd;fill:#932812;" d="M299.347,207.751c0.551,0,0.923,0.894,0.831,1.995
				c-0.091,1.102-0.613,1.995-1.163,1.995c-0.552,0-0.925-0.893-0.832-1.995C298.276,208.645,298.797,207.751,299.347,207.751z"/>
			<path style="fill-rule:evenodd;clip-rule:evenodd;fill:#3C1E00;" d="M308.093,258.389c-9.038,8.862-20.468,0.572-19.454-3.407
				c0.32,0.534,0.572,1.1,0.995,1.578c3.806,4.286,12.539,5.612,16.847,0.345c0.391-0.546,2.552-1.965,3.148-1.605
				C310.225,255.66,308.486,257.843,308.093,258.389z"/>
			<path style="fill-rule:evenodd;clip-rule:evenodd;fill:#F0CA0C;" d="M339.771,264.641c2.246,0,4.079-1.832,4.079-4.081
				c0-2.246-1.833-4.079-4.079-4.079c-2.247,0-4.081,1.833-4.081,4.079C335.69,262.809,337.524,264.641,339.771,264.641z"/>
			<path style="fill-rule:evenodd;clip-rule:evenodd;fill:#F0CA0C;" d="M302.66,193.3c-0.161-0.315-0.037-0.699,0.279-0.861
				c0.315-0.161,0.7-0.036,0.861,0.279c0.049,0.096,0.104,0.202,0.164,0.315c4.345,8.122,16.025,16.033,27.603,21.423
				c11.515,5.362,22.84,8.231,26.617,6.307l0.055-0.028c7.11-3.803,1.267-10.984,1.25-11.005c-0.221-0.277-0.174-0.681,0.104-0.901
				c0.277-0.22,0.681-0.174,0.901,0.103c0.02,0.024,6.834,8.395-1.651,12.932l-0.072,0.039c-4.114,2.102-15.907-0.769-27.747-6.28
				c-11.782-5.486-23.697-13.589-28.188-21.985C302.78,193.533,302.72,193.421,302.66,193.3z"/>
			<path style="fill-rule:evenodd;clip-rule:evenodd;fill:#F0CA0C;" d="M303.317,192.923c0.248-0.253,0.653-0.256,0.905-0.008
				c0.252,0.249,0.256,0.654,0.008,0.906c-7.764,7.864-16.428,15.566-23.587,20.001c-5.978,3.703-10.989,5.143-13.754,2.601
				c-0.261-0.24-0.278-0.646-0.039-0.907c0.239-0.259,0.647-0.277,0.906-0.037c2.251,2.07,6.733,0.648,12.213-2.745
				C287.032,208.358,295.614,200.726,303.317,192.923z"/>
			<path style="fill-rule:evenodd;clip-rule:evenodd;fill:#F0CA0C;" d="M303.96,193.445c-0.191-0.298-0.105-0.695,0.193-0.886
				c0.298-0.192,0.694-0.105,0.887,0.193c0.328,0.51,0.681,1.004,1.056,1.481c5.057,6.45,14.653,10.923,23.9,13.202
				c9.209,2.27,18.005,2.372,21.553,0.087c0.123-0.08,0.24-0.163,0.353-0.251l0.03-0.023c6.299-4.966,1.214-9.946,1.199-9.959
				c-0.249-0.251-0.248-0.657,0.003-0.906c0.251-0.25,0.656-0.249,0.905,0.003c0.017,0.017,6.121,5.995-1.304,11.859l-0.041,0.036
				c-0.14,0.109-0.291,0.216-0.453,0.321c-3.829,2.467-13.03,2.427-22.552,0.08c-9.482-2.339-19.352-6.96-24.604-13.659
				C304.678,194.503,304.302,193.978,303.96,193.445z"/>
			<path style="fill-rule:evenodd;clip-rule:evenodd;fill:#F0CA0C;" d="M303.409,192.845c0.292-0.201,0.691-0.128,0.892,0.163
				c0.202,0.291,0.129,0.69-0.163,0.892c-4.82,3.333-9.966,6.415-14.969,8.754c-4.43,2.072-8.748,3.564-12.633,4.137
				c-0.35,0.05-0.675-0.192-0.728-0.543c-0.05-0.351,0.192-0.677,0.543-0.728c3.76-0.555,7.958-2.006,12.277-4.027
				C293.557,199.187,298.641,196.143,303.409,192.845z"/>
		</g>
		<g>
			<g>
				<path style="fill-rule:evenodd;clip-rule:evenodd;fill:#542600;" d="M495.602,259.887c-0.325,1.626-0.092,6.855-1.981,10.63
					c-3.153,6.303-6.732,14.752-4.885,22.529c3.654,15.382,12.39,29.547,12.39,29.547s-31.761-20.793-42.168-34.119
					C448.551,275.148,491.335,258.686,495.602,259.887z"/>
				<path style="fill-rule:evenodd;clip-rule:evenodd;fill:#D5809F;" d="M496.375,267.012c-0.591-0.313-1.323-0.085-1.634,0.508
					c-0.313,0.591-0.085,1.324,0.506,1.635c1.023,0.538,1.9,1.452,2.52,2.605c0.618,1.15,0.978,2.537,0.978,4.036
					c0,2.032-0.661,3.86-1.73,5.171c-1.013,1.24-2.396,2.007-3.905,2.007c-1.51,0-2.892-0.767-3.904-2.007
					c-1.069-1.311-1.732-3.139-1.732-5.171c0-1.055,0.179-2.053,0.501-2.954c0.331-0.93,0.81-1.747,1.393-2.41
					c0.442-0.499,0.397-1.264-0.104-1.706c-0.5-0.443-1.264-0.396-1.706,0.104c-0.796,0.9-1.436,1.987-1.868,3.196
					c-0.413,1.158-0.643,2.433-0.643,3.77c0,2.602,0.871,4.97,2.281,6.697c1.466,1.797,3.509,2.907,5.781,2.907
					c2.272,0,4.317-1.11,5.782-2.907c1.411-1.728,2.28-4.096,2.28-6.697c0-1.905-0.467-3.688-1.271-5.183
					C499.054,269.038,497.829,267.777,496.375,267.012z"/>
				<path style="fill-rule:evenodd;clip-rule:evenodd;fill:#542600;" d="M455.949,301.876c-9.504-2.226-26.029-17.725-24.401-27.742
					c1.626-10.018,4.623-0.855,7.619,1.627C442.165,278.245,457.063,301.876,455.949,301.876z"/>
				<path style="fill-rule:evenodd;clip-rule:evenodd;fill:#504E69;" d="M516.955,333.343
					c-13.698,10.616-29.368,15.155-29.368,15.155l-50.003-6.85l-2.227-0.215l-5.861-4.794l-7.666,17.338l-20.208-18.152
					c0,0,10.274-32.536,23.633-35.962c13.357-3.426,54.112-5.822,54.112-5.822s6.329,7.503,12.918,9.901
					c6.168,2.245,5.159,2.278,7.976,7.908C506.081,323.496,516.955,333.343,516.955,333.343z"/>
				<path style="fill-rule:evenodd;clip-rule:evenodd;fill:#454257;" d="M517.385,333.513c-5.518,4.277-7.829,16.102-12.917,18.474
					c-1.044,0.487-7.705-6.94-8.67-6.528c-6.004,2.568-8.211,3.04-8.211,3.04l-8.929-1.224c-3.607-9.92,7.675-6.443,4.284-31.785
					c5.074-0.359-3.575-21.448-3.575-21.448s4.688,0.463,11.205,3.052c5.655,2.245,9.099,4.848,11.913,10.479
					C508.308,319.214,517.385,333.513,517.385,333.513z"/>
				<path style="fill-rule:evenodd;clip-rule:evenodd;fill:#E7B897;" d="M436.394,272.383c4.047,6.617,9.64,16.72,11.898,21.406
					c1.381,2.866-4.375,2.887-7.444,3.815c-1.368,0.415-2.029-0.531-1.459,0.577c9.396,18.227,25.932,21.543,31.432,20.428
					c16.67-3.381,6.723-18.313,7.51-23.108c0.251-1.531-3.71-1.622-3.727-3.217c-0.044-3.915,2.389-8.56,3.951-12.054
					C484.762,266.345,436.394,272.383,436.394,272.383z"/>
				<path style="fill-rule:evenodd;clip-rule:evenodd;fill:#D5809F;" d="M484.844,294.547c4.415,14.352,4.415,14.352,4.415,14.352
					s13.248,15.14,15.298,21.764c2.051,6.625-5.046,16.717-6.465,26.022c-1.421,9.304-0.946,14.823,1.419,19.082
					c2.366,4.258,9.305,9.936,9.305,9.936c-14.315,36.639-61.855,27.135-85.885,3.045c26.136-20.276,24.357-28.857,6.084-50.871
					c0,0,8.363-1.955,8.363-9.84c0-7.887-1.92-19.927-3.813-23.711c-1.891-3.785-1.693-5.623-1.693-5.623l5.73-0.864
					c9.222,19.112,26.282,29.609,36.176,25.823c7.244-2.773,8.692-16.744,5.389-29.743L484.844,294.547z"/>
				<path style="fill-rule:evenodd;clip-rule:evenodd;fill:#E7B897;" d="M485.23,206.444c0.523,3.985,4.356,10.331,7.826,19.151
					c5.285,13.431,6.809,31.808,0.359,45.975c-3.334,7.325-7.798,14.529-17.091,17.229c-25.002,7.256-44.524-14.517-44.524-14.517
					c-15.675,0.581-21.934-16.176-16.952-18.308c4.623-1.979,11.301,0.66,11.301,0.66l21.234-65.317
					C447.384,191.317,469.989,180.549,485.23,206.444z"/>
				<path style="fill-rule:evenodd;clip-rule:evenodd;fill:#C57B59;" d="M490.368,219.276c0.879,1.944,1.796,4.049,2.689,6.319
					c1.303,3.314,2.378,6.929,3.16,10.707c-5.884-10.256-14.266-14.333-21.602-17.014c-8.905-3.253-10.104-3.253-10.104-3.253
					s-7.535,18.665-14.897,27.913c-7.364,9.248-16.44,15.754-16.44,15.754s-1.519-9.442-2.425-17.216l7.546-23.21
					c4.052-4.693,9.702-8.973,17.141-9.748c16.439-1.713,13.529-5.823,26.886,3.767C485.553,215.615,488.2,217.493,490.368,219.276z
					"/>
				<path style="fill-rule:evenodd;clip-rule:evenodd;fill:#C57B59;" d="M425.55,261.028c2.352,2.75,3.451,6.715,1.105,7.845
					c-1.889,0.909-7.161-4.098-7.624-7.253C418.619,258.815,423.198,258.278,425.55,261.028z"/>
				<path style="fill-rule:evenodd;clip-rule:evenodd;fill:#FFFFFF;" d="M461.903,245.087c3.78,4.546,2.252,8.434-3.427,9.217
					c-4.478,0.617-9.981-0.96-6.655-6.891C453.189,244.974,458.043,244.076,461.903,245.087z"/>
				<path style="fill-rule:evenodd;clip-rule:evenodd;fill:#FFFFFF;" d="M490.59,239.513c1.363,1.639,3.123,5.365,0.999,7.846
					c-2.125,2.48-6.732,1.92-7.609,0.756C483.105,246.951,484.096,237.811,490.59,239.513z"/>
				<path style="fill-rule:evenodd;clip-rule:evenodd;fill:#3C1E00;" d="M479.81,245.518c1.275-3.569,3.599-8.407,8.341-7.588
					c2.99,0.516,4.517,3.018,5.501,5.6l-1.074-1.321c-5.029-6.021-9.026-2.777-10.981,3.707c-0.11,0.493-0.6,0.804-1.093,0.694
					C480.009,246.499,479.699,246.01,479.81,245.518z"/>
				<path style="fill-rule:evenodd;clip-rule:evenodd;fill:#3C1E00;" d="M463.236,248.78c-1.096-4.306-10.195-6.179-12.293,0.697
					c-0.351,1.145-0.52,2.833-0.674,4.117c-2.499-12.011,12.486-12.716,14.763-5.163c0.097,0.497-0.228,0.977-0.724,1.074
					C463.812,249.601,463.333,249.276,463.236,248.78z"/>
				<path style="fill-rule:evenodd;clip-rule:evenodd;fill:#3C1E00;" d="M485.46,238.619c-2.396,0.511-3.831,3.303-3.205,6.235
					c0.626,2.931,3.076,4.893,5.472,4.382c2.396-0.512,3.832-3.304,3.205-6.235C490.306,240.069,487.856,238.107,485.46,238.619z"/>
				<path style="fill-rule:evenodd;clip-rule:evenodd;fill:#3C1E00;" d="M456.269,244.108c-2.397,0.512-3.832,3.304-3.205,6.234
					c1.493,6.99,10.169,5.137,8.678-1.853C461.115,245.558,458.665,243.597,456.269,244.108z"/>
				<path style="fill-rule:evenodd;clip-rule:evenodd;fill:#3C1E00;" d="M457.161,232.209c1.341,4.926,2.026,6.324-2.701,7.238
					c-4.729,0.913-11.627,4.316-11.627,4.316S443.742,234.013,457.161,232.209z"/>
				<path style="fill-rule:evenodd;clip-rule:evenodd;fill:#3C1E00;" d="M475.994,228.188c0.352,3.014,0.688,5.935,3.404,5.548
					c2.716-0.388,10.397-1.931,10.397-1.931S487.493,226.892,475.994,228.188z"/>
				<path style="fill-rule:evenodd;clip-rule:evenodd;fill:#FFFFFF;" d="M489.649,239.708c-0.898-0.475-1.793-0.546-1.996-0.16
					c-0.205,0.386,0.358,1.083,1.257,1.558c0.899,0.475,1.794,0.545,1.997,0.16C491.111,240.879,490.548,240.182,489.649,239.708z"
					/>
				<path style="fill-rule:evenodd;clip-rule:evenodd;fill:#FFFFFF;" d="M460.728,246.008c-0.899-0.474-1.793-0.546-1.997-0.16
					c-0.203,0.386,0.36,1.084,1.258,1.557c0.899,0.476,1.794,0.545,1.996,0.16C462.189,247.18,461.625,246.482,460.728,246.008z"/>
				<path style="fill-rule:evenodd;clip-rule:evenodd;fill:#C57B59;" d="M482.884,256.965c-3.183,2.48-6.859,3.407-9.044,3.683
					c-2.185,0.273,2.072,5.258,6.6,3.918C484.968,263.227,486.759,255.598,482.884,256.965z"/>
				<path style="fill-rule:evenodd;clip-rule:evenodd;fill:#3C1E00;" d="M481.31,262.841c0.887-1.003,3.362-3.612,3.38-5.282
					l-0.46-1.481c-4.324-1.828-5.411-2.583-7.915-6.317c-0.627-0.936-0.397-0.67-1.004-1.239c0.499,4.219,3.985,6.951,7.468,8.846
					c-0.862,2.002-1.203,2.061-2.943,3.796c-0.464,0.409-0.509,1.113-0.102,1.577C480.141,263.204,480.847,263.249,481.31,262.841z"
					/>
				<path style="fill-rule:evenodd;clip-rule:evenodd;fill:#FFFFFF;" d="M476.977,254.389c-0.072,0.17-0.039,0.561,0.089,0.973
					c0.191,0.613,0.748,1.583,1.31,1.883c0.602,0.32,1.21-0.062,1.336-0.365c0.202-0.48-0.634-0.788-1.311-1.322
					C477.662,254.971,477.063,254.187,476.977,254.389z"/>
				<path style="fill-rule:evenodd;clip-rule:evenodd;fill:#542600;" d="M431.801,192.554c0.687-3.134,4.235-5.541,15.583-5.443
					c37.209,0.322,54.64,20.693,50.004,54.431c-7.586-27.44-25.878-23.561-39.215-32.102L431.801,192.554z"/>
				<path style="fill-rule:evenodd;clip-rule:evenodd;fill:#542600;" d="M428.205,190.987c15.069,4.618,31.852,14.185,33.565,19.133
					c3.142,9.079-9.882,30.919-16.097,38.101c2.243-3.91,7.413-20.111,7.791-20.535c0,0-10.361,18.721-15.412,25.483
					c-5.052,6.763-5.564,12.827-5.564,12.827s-3.871-6.548-7.572-9.353c-2.454-1.857-6.821-1.452-9.639-0.753
					c0,0-7.621-11.38-9.334-19.628C404.23,228.017,412.45,189.751,428.205,190.987z"/>
				<path style="fill-rule:evenodd;clip-rule:evenodd;fill:#3C1E00;" d="M463.416,271.461c4.296,5.085,10.857,4.763,15.61,0.569
					c0.982-0.866,2.015-2.241,1.692-3.616c-0.277,0.504-0.494,1.038-0.86,1.488c-3.294,4.049-10.849,5.302-14.577,0.327
					c-0.339-0.516-1.032-0.657-1.547-0.317C463.221,270.25,463.077,270.945,463.416,271.461z"/>
				<path style="fill-rule:evenodd;clip-rule:evenodd;fill:#DD976B;" d="M474.102,278.001c-2.292,0.522-4.459,0.105-5.681-0.289
					c-1.221-0.395-0.204,3.286,2.518,3.696C473.656,281.82,476.484,278.235,474.102,278.001z"/>
				<path style="fill-rule:evenodd;clip-rule:evenodd;fill:#693101;" d="M487.867,213.828c-16.18-3.673-31.478-11.636-41.912-18.112
					c-4.481-2.781-8.063-5.288-10.434-7.064c2.389-1,6.13-1.59,11.863-1.54c26.228,0.227,42.629,10.415,48.4,28.224
					c-0.647-0.14-1.311-0.264-1.99-0.369C491.81,214.657,489.832,214.274,487.867,213.828z"/>
				<path style="fill-rule:evenodd;clip-rule:evenodd;fill:#693101;" d="M434.838,229.911c-9.401,3.048-19.671,3.11-28.941,0.128
					c1.252-13.579,9.153-40.085,22.309-39.052c1.221,0.374,2.453,0.781,3.687,1.214c4.57,1.607,9.174,3.591,13.355,5.691
					c4.079,2.047,7.756,4.208,10.613,6.239C469.185,213.611,443.109,227.23,434.838,229.911z"/>
				<path style="fill-rule:evenodd;clip-rule:evenodd;fill:#BC6F8A;" d="M422.931,388.748c25.387-19.694,24.436-28.356,7.615-49.01
					c-0.496-0.61-1.006-1.231-1.53-1.861c0,0,0.054-0.013,0.155-0.041c0.661-0.181,3.333-1.016,5.45-3.108
					c1.336,2.398,3.118,4.924,5.484,7.268c0.765,0.754,1.59,1.49,2.478,2.196c6.624,5.264,16.886,8.895,32.716,6.612
					c16.691-2.403,17.792-2.914,18.6-1.336c1.592,3.112-16.142,7.962-21.854,8.524c-12.933,1.274-22.883-3.883-24.317,9.595
					c-1.544,14.523-6.991,28.765,6.544,39.714C442.569,403.787,431.318,397.156,422.931,388.748z"/>
				<path style="fill-rule:evenodd;clip-rule:evenodd;fill:#454257;" d="M434.621,334.727c-1.38,1.364-3.685,2.704-5.605,3.149
					c0.189,0.228-6.364,14.311-7.186,16.102l-2.413-2.168l-1.505-1.352c7.97-11.225,12.863-26.539,12.863-26.539
					S431.408,328.956,434.621,334.727z"/>
				<path style="fill-rule:evenodd;clip-rule:evenodd;fill:#C57B59;" d="M475.555,294.447c-3.73,5.021-7.818,9.014-20.12,3.098
					c-0.771-0.369-1.498-0.726-2.189-1.069c-0.254-0.126-0.502-0.25-0.744-0.372c-0.81-0.408-1.563-0.795-2.261-1.163
					c-0.678-0.358-1.307-0.695-1.889-1.017c-0.02-0.044-0.039-0.089-0.061-0.134c-1.206-2.506-3.368-6.559-5.736-10.8
					c0.597,0.373,1.211,0.743,1.847,1.108c0.518,0.298,1.05,0.592,1.596,0.881c4.077,2.163,8.882,4.028,14.206,4.85
					c3.853,0.596,7.977,0.645,12.297-0.133c0.825-0.148,1.661-0.328,2.5-0.54c-0.258,1.069-0.409,2.124-0.398,3.129
					c0.008,0.666,0.704,1.069,1.494,1.427c-0.071,0.097-0.141,0.191-0.212,0.287c-0.066,0.093-0.135,0.185-0.202,0.277
					C475.64,294.332,475.599,294.39,475.555,294.447z"/>
				<path style="fill-rule:evenodd;clip-rule:evenodd;fill:#D5809F;" d="M429.248,269.922c-0.594-0.311-1.324-0.083-1.637,0.507
					c-0.311,0.594-0.084,1.325,0.508,1.637c1.022,0.539,1.898,1.45,2.52,2.605c0.618,1.15,0.978,2.537,0.978,4.035
					c0,2.033-0.662,3.86-1.73,5.17c-1.014,1.24-2.396,2.008-3.906,2.008c-1.511,0-2.893-0.768-3.905-2.008
					c-1.07-1.31-1.73-3.137-1.73-5.17c0-1.053,0.179-2.053,0.5-2.953c0.333-0.93,0.81-1.75,1.396-2.41
					c0.441-0.501,0.396-1.265-0.105-1.708c-0.501-0.441-1.263-0.395-1.707,0.106c-0.796,0.9-1.435,1.985-1.868,3.197
					c-0.413,1.154-0.643,2.432-0.643,3.768c0,2.603,0.872,4.971,2.28,6.696c1.468,1.798,3.511,2.909,5.783,2.909
					c2.272,0,4.315-1.111,5.781-2.909c1.41-1.726,2.282-4.094,2.282-6.696c0-1.905-0.468-3.688-1.271-5.182
					C431.925,271.95,430.701,270.687,429.248,269.922z"/>
				<path style="fill-rule:evenodd;clip-rule:evenodd;fill:#693101;" d="M488.664,291.203c8.704,12.297,25.862,37.574,7.091,61.132
					c-1.809,2.269-5.618,6.266-6.042,11.014c-0.335,3.734,2.859,8.715,1.004,8.359c-30.567-5.866-10.84-52.719-13.216-69.449
					c-0.268-1.885-0.694-5.849-0.197-7.811c0.747-2.955,1.507-4.621,3.464-5.529C482.935,287.912,486.376,287.972,488.664,291.203z"
					/>
				
					<linearGradient id="SVGID_00000133495947549951858510000014328316845691938695_" gradientUnits="userSpaceOnUse" x1="543.3967" y1="300.5497" x2="503.8968" y2="361.0497">
					<stop  offset="0" style="stop-color:#E7B897"/>
					<stop  offset="1" style="stop-color:#C57B59"/>
				</linearGradient>
				<path style="fill-rule:evenodd;clip-rule:evenodd;fill:url(#SVGID_00000133495947549951858510000014328316845691938695_);" d="
					M514.795,324.359c4.955-6.831,10.241-13.911,14.54-21.174c1.624-2.744,2.214-4.135,2.278-4.128
					c0.05,0.005,0.872-1.612,2.424-3.062c1.254-1.17,4.324-2.438,5.628-4.199c2.409-3.254,3.252-4.56,4.451-6.307
					c1.277-1.86,2.087-1.602,2.248-0.555c0.237,1.54-1.338,4.952-0.954,4.483c0.543-0.664,2.692-4.434,3.719-7.587
					c0.558-1.713,2.143-0.892,2.243,0.053c0.158,1.478-1,5.249-0.902,5.711c0.096,0.452,2.171-4.792,2.549-5.354
					c0.637-0.945,1.729-0.999,1.894-0.345c0.311,1.24-0.914,5.612-0.746,5.639c0.327,0.049,1.563-4.421,2.435-5.637
					c0.543-0.759,1.379-0.139,1.4,0.117c0.201,2.285-1.514,9.985-6.134,15.197c-9.043,10.198-11.82,4.513-14.278,12.506
					c-1.898,12.581-7.229,40.209-18.001,45.464c-4.417,2.155-7.631,2.603-9.76,1.672
					C492.155,349.118,510.963,329.64,514.795,324.359z"/>
				
					<linearGradient id="SVGID_00000098217423235794396980000000930834147710890383_" gradientUnits="userSpaceOnUse" x1="385.2845" y1="297.5997" x2="417.0985" y2="367.4426">
					<stop  offset="0" style="stop-color:#E7B897"/>
					<stop  offset="1" style="stop-color:#C57B59"/>
				</linearGradient>
				<path style="fill-rule:evenodd;clip-rule:evenodd;fill:url(#SVGID_00000098217423235794396980000000930834147710890383_);" d="
					M383.995,309.508c-2.313-4.917-6.888-6.381-13.24-16.447c-3.774-5.984-3.724-11.218-3.147-13.477
					c0.064-0.253,1.092-1.101,1.585-0.29c0.783,1.283,1.03,5.206,1.365,5.21c0.172,0.002-0.349-3.339,0.167-4.531
					c0.27-0.628,1.357-0.394,1.84,0.657c0.287,0.624,1.506,6.222,1.676,5.784c0.174-0.445-0.513-3.528-0.112-4.985
					c0.256-0.931,1.231-1.2,2.256,0.315c1.777,2.627,2.191,6.574,2.626,7.329c0.309,0.533-0.594-2.982-0.102-4.488
					c0.332-1.023,1.186-1.149,2.161,0.927c0.916,1.947,1.429,3.232,3.309,6.889c1.329,2.584,4.175,5.042,6.332,6.641
					c5.876,4.351,4.145,9.139,6.517,14.427c2.854,4.557,7.007,10.276,12.922,16.678c9.431,10.208,11.906,13.527,12.378,20.337
					c0.616,8.855-2.687,14.797-11.96,14.143C392.108,363.329,385.479,321.174,383.995,309.508z"/>
			</g>
			<path style="fill-rule:evenodd;clip-rule:evenodd;fill:#542600;" d="M486.308,361.727c-1.893-0.945-3.748-2.831-5.221-5.636
				c-0.857-1.63-1.587-3.573-2.115-5.821c-0.225-0.953-0.415-1.965-0.563-3.029c-0.055-0.399-0.104-0.807-0.148-1.219
				c-0.115-1.094-0.19-2.236-0.216-3.434c-0.099-4.474,0.455-9.688,1.927-15.623c1.988-8.027,1.861-13.939,0.984-18.679
				c-0.037-0.201-0.075-0.401-0.116-0.598c-0.189-0.936-0.406-1.824-0.642-2.676c-1.004-3.652-2.321-6.605-3.068-9.467
				c-0.188,2.099,0.147,5.134,0.371,6.712c0.149,1.06,0.212,2.238,0.204,3.521c-0.02,3.027-0.432,6.625-0.992,10.561
				c-0.281,1.978-0.602,4.042-0.928,6.16c-1.202,7.783-2.5,16.301-2.368,24.057c0.026,1.521,0.107,3.013,0.254,4.464
				c0.233,2.292,0.63,4.483,1.24,6.529c2.109,7.084,6.749,12.419,15.806,14.157c1.855,0.355-1.339-4.625-1.004-8.359
				c0.003-0.028,0.006-0.059,0.008-0.089C488.643,362.829,487.492,362.321,486.308,361.727z"/>
		</g>
		<g>
			<path style="fill-rule:evenodd;clip-rule:evenodd;fill:#D5809F;" d="M514.43,156.146c-7.87,14.904-21.458,21.25-38.724,24.991
				c0,0,5.492-5.713,6.317-12.853c0.825-7.14-0.275-9.52-0.275-9.52L514.43,156.146z"/>
			<ellipse style="fill-rule:evenodd;clip-rule:evenodd;fill:#D5809F;" cx="484.429" cy="131.597" rx="54.788" ry="37.898"/>
			<text transform="matrix(1 0 0 1 456.7344 140.3628)"><tspan x="0" y="0" style="fill:#FFFFFF; font-family:'OpenSans-Bold'; font-size:25px;">h</tspan><tspan x="16.431" y="0" style="fill:#FFFFFF; font-family:'OpenSans-Bold'; font-size:25px;">alo</tspan></text>
		</g>
		<g>
			<path style="fill-rule:evenodd;clip-rule:evenodd;fill:#DDA987;" d="M568.944,297.575c-3.917,10.881-5.921,12.47-8.633,18.533
				c-7.463,16.685-17.408,33.839-6.237,51.105c15.959,24.662,25.752-25.389,25.752-25.389S610.292,304.829,568.944,297.575z"/>
			<path style="fill-rule:evenodd;clip-rule:evenodd;fill:#E7B897;" d="M597.716,212.398c-0.852-5.752-8.644-9.64-9.419-3.751
				c-0.774,5.889,4.939,19.601,8.266,18.045C599.886,225.136,597.716,212.398,597.716,212.398z"/>
			<path style="fill-rule:evenodd;clip-rule:evenodd;fill:#C57B59;" d="M596.104,213.232c0.891,3.702,0.273,8.024-2.104,8.081
				c-1.917,0.045-4.355-7.134-3.523-10.393C591.217,208.023,595.217,209.529,596.104,213.232z"/>
			<path style="fill-rule:evenodd;clip-rule:evenodd;fill:#505199;" d="M638.965,274.329c17.063,7.234,26.218,10.963,31.931,17.057
				c9.412,10.039,9.492,24.014,20.206,52.308l-17.136,3.718l-20.313,2.902c0.455,0-3.284,12.744-4.542,23.206
				c-0.743,6.188,5.64,11.58,5.995,13.063c0.451,1.891,4.968,2.072,6.794,4.837c2.438,3.691-0.992,7.131-0.992,7.131
				c-21.03,21.756-75.883,23.464-91.037,2.54c0,0-8.532-5.272-7.986-14.933c0.154-2.765,8.684-6.888,8.905-10.121
				c0.602-8.766-0.352-20.442,0.862-30.701c-13.416-3.26-21.035-28.027-21.035-28.027c3.788-4.254,5.972-5.569,8.748-10.219
				c18.205-30.502,30.35-28.835,48.014-33.306c0.937,0.573,1.711,1.335,2.332,2.267
				C619.145,273.788,629.405,273.941,638.965,274.329z"/>
			<path style="fill-rule:evenodd;clip-rule:evenodd;fill:#454994;" d="M667.464,348.34l-11.982,1.711
				c-2.898-1.527-4.815-2.557-4.815-2.557c-0.726-40.259,5.077-39.534,5.077-39.534S657.954,329.785,667.464,348.34z"/>
			
				<linearGradient id="SVGID_00000003082398587151966650000018139066680287262633_" gradientUnits="userSpaceOnUse" x1="640.2081" y1="321.2977" x2="686.7088" y2="384.2986">
				<stop  offset="0" style="stop-color:#E7B897"/>
				<stop  offset="1" style="stop-color:#BD7F5D"/>
			</linearGradient>
			<path style="fill-rule:evenodd;clip-rule:evenodd;fill:url(#SVGID_00000003082398587151966650000018139066680287262633_);" d="
				M685.935,344.691c2.357,7.798-2.902,22.305-6.529,27.928c-8.489,13.158-20.604,8.609-30.011-0.855
				c-8.065-8.109-11.562-21.799-16.361-32.412l0.075-0.052c-0.69-1.666-1.423-3.193-2.216-4.53c-1.125-1.895-1.05-0.546-5.472-7.095
				c-2.601-3.852-7.393-15.786-5.58-17.464c0.147-0.136,1.069-0.572,1.526-0.326c0.59,0.316,2.075,4.568,2.557,4.398
				c0.534-0.189-2.167-5.563-2.202-6.915c-0.031-1.096,1.461-1.816,1.94-1.577c0.556,0.278,1.322,2.178,2.284,3.654
				c1.51,2.319,3.226,4.488,3.226,4.488s-5.107-10.279-3.2-11.196c0.63-0.302,2.429-0.463,3.251,1.269
				c1.316,2.772,3.186,6.089,4.256,7.942c0.511,0.884,0.84,1.435,0.84,1.435s-0.288-0.627-0.704-1.595
				c-1.216-2.829-3.53-8.567-2.977-10.081c0.349-0.95,2.294-0.996,3.118-0.112c1.245,1.335,1.781,3.229,2.727,4.727
				c0.219,0.346,0.552,1.135,0.961,2.123c1.043,2.522,2.577,6.35,3.941,7.441c0.793,0.638,1.567-2.542,2.914-4.026
				c0.41-0.454,0.876-0.749,1.412-0.728c1.313,0.051,2.754,0.829,1.898,2.348c-0.929,1.651-0.675,8.098-1.283,11.09
				c-0.046,0.23-0.1,0.455-0.16,0.679c-0.377,1.439-0.944,2.777-0.938,4.107c0.002,0.46,0.113,0.963,0.313,1.496l0.184-0.116
				l18.723,17.401L685.935,344.691z"/>
			<path style="fill-rule:evenodd;clip-rule:evenodd;fill:#E7B897;" d="M652.203,250.545c-2.256,2.246-8.628,22.445-7.469,24.373
				c1.454,2.417,6.97,2.283,3.627,4.626c-26.69,18.709-41.749,8.112-44.228-3.991c-0.414-2.02,4.811-2.141,4.748-4.246
				c-0.152-5.169-3.614-14.202-5.865-18.816C594.073,234.157,652.203,250.545,652.203,250.545z"/>
			<path style="fill-rule:evenodd;clip-rule:evenodd;fill:#C57B59;" d="M654.018,247.1c-3.273,5.673-4.742,8.058-5.865,11.968
				c-3.191,11.1-29.375,26.399-38.721,13.319c-1.026-1.438-1.139-5.158-1.735-7.202c-1.443-4.946-3.873-10.641-5.405-13.782
				C593.349,233.069,654.018,247.1,654.018,247.1z"/>
			<path style="fill-rule:evenodd;clip-rule:evenodd;fill:#693101;" d="M601.49,173.214c-14.297,3.034-14.903,26.346-5.225,37.123
				l12.132-35.079L601.49,173.214z"/>
			<path style="fill-rule:evenodd;clip-rule:evenodd;fill:#E7B897;" d="M672.261,211.536c8.488-2.903,14.373,4.241,6.119,14.223
				c-8.253,9.981-13.245,4.763-13.245,4.763c-6.306,15.343-11.88,19.193-21.353,26.639c-8.032,6.311-16.892,10.767-26.514,7.711
				c-5.848-1.857-10.42-6.738-14.206-11.415c-4.635-5.73-7.908-11.881-8.661-20.768c0,0,5.644-55.067,10.639-58.402
				c4.994-3.336,56.167,5.61,57.315,8.425c1.148,2.814,2.634,20.342,2.634,20.342l3.123,13.203L672.261,211.536z"/>
			<path style="fill-rule:evenodd;clip-rule:evenodd;fill:#FFFFFF;" d="M637.361,207.857c-3.641,5.091-1.728,9.079,4.331,9.468
				c4.776,0.306,10.469-1.785,6.497-7.792C646.556,207.063,641.36,206.49,637.361,207.857z"/>
			<path style="fill-rule:evenodd;clip-rule:evenodd;fill:#FFFFFF;" d="M606.584,203.501c-1.313,1.836-2.885,5.909-0.449,8.364
				c2.436,2.456,7.259,1.508,8.095,0.211C615.065,210.779,613.311,201.202,606.584,203.501z"/>
			<path style="fill-rule:evenodd;clip-rule:evenodd;fill:#3C1E00;" d="M618.436,209.009c-1.623-3.67-4.451-8.6-9.398-7.369
				c-3.118,0.775-4.539,3.536-5.377,6.339l1.033-1.479c4.846-6.749,9.317-3.63,11.885,3.066c0.153,0.512,0.695,0.804,1.207,0.649
				C618.299,210.062,618.588,209.523,618.436,209.009z"/>
			<path style="fill-rule:evenodd;clip-rule:evenodd;fill:#3C1E00;" d="M636.24,211.859c0.821-4.632,10.291-7.314,13.036-0.213
				c0.458,1.183,0.769,2.952,1.031,4.295c1.711-12.878-14.173-12.464-15.992-4.311c-0.063,0.532,0.317,1.014,0.848,1.077
				C635.694,212.77,636.176,212.391,636.24,211.859z"/>
			<path style="fill-rule:evenodd;clip-rule:evenodd;fill:#3C1E00;" d="M611.933,202.16c2.57,0.356,4.302,3.192,3.867,6.337
				c-0.436,3.145-2.871,5.405-5.442,5.05c-2.569-0.355-4.3-3.192-3.866-6.337C606.927,204.066,609.361,201.805,611.933,202.16z"/>
			<path style="fill-rule:evenodd;clip-rule:evenodd;fill:#3C1E00;" d="M643.236,206.387c2.571,0.355,4.303,3.192,3.869,6.337
				c-1.037,7.498-10.347,6.211-9.31-1.287C638.23,208.292,640.667,206.031,643.236,206.387z"/>
			<path style="fill-rule:evenodd;clip-rule:evenodd;fill:#693101;" d="M641.325,193.205c-1.035,5.306-1.651,6.836,3.414,7.436
				c5.063,0.599,12.612,3.66,12.612,3.66S655.637,194.073,641.325,193.205z"/>
			<path style="fill-rule:evenodd;clip-rule:evenodd;fill:#693101;" d="M621.125,190.413c-0.142,3.21-0.268,6.321-3.167,6.122
				c-2.898-0.199-11.131-1.236-11.131-1.236S608.88,189.932,621.125,190.413z"/>
			<path style="fill-rule:evenodd;clip-rule:evenodd;fill:#FFFFFF;" d="M607.888,203.358c0.912-0.57,1.851-0.715,2.096-0.322
				c0.245,0.392-0.296,1.172-1.209,1.743c-0.911,0.57-1.851,0.715-2.095,0.322C606.434,204.71,606.976,203.929,607.888,203.358z"/>
			<path style="fill-rule:evenodd;clip-rule:evenodd;fill:#FFFFFF;" d="M638.668,208.653c0.912-0.571,1.851-0.714,2.096-0.323
				c0.245,0.393-0.296,1.173-1.208,1.743c-0.912,0.571-1.852,0.715-2.096,0.323C637.214,210.003,637.755,209.223,638.668,208.653z"
				/>
			<path style="fill-rule:evenodd;clip-rule:evenodd;fill:#C57B59;" d="M617.916,224.99c4.092,1.231,8.077,0.742,10.339,0.177
				c2.262-0.565-0.035,5.986-5.019,6.395C618.251,231.969,613.565,225.121,617.916,224.99z"/>
			<path style="fill-rule:evenodd;clip-rule:evenodd;fill:#3C1E00;" d="M621.716,230.19c-1.256-0.65-4.701-2.282-5.357-3.924
				l-0.113-1.638c3.573-3.46,4.357-4.621,5.401-9.266c0.262-1.163,0.137-0.814,0.518-1.607c1.121,4.355-1.278,8.388-3.992,11.59
				c1.617,1.648,1.977,1.577,4.36,2.623c0.612,0.226,0.928,0.905,0.702,1.518C623.01,230.1,622.33,230.415,621.716,230.19z"/>
			<path style="fill-rule:evenodd;clip-rule:evenodd;fill:#FFFFFF;" d="M614.161,239.519c3.451,0.512,11.614,0.8,16.66-2.692
				c5.047-3.492,3.547,11.029-5.877,11.661C615.52,249.117,611.652,242.805,614.161,239.519z"/>
			<path style="fill-rule:evenodd;clip-rule:evenodd;fill:#FFFFFF;" d="M622.764,220.185c0.136,0.142,0.253,0.542,0.285,0.997
				c0.046,0.678-0.133,1.85-0.573,2.36c-0.472,0.547-1.22,0.4-1.46,0.151c-0.383-0.397,0.323-1.021,0.788-1.809
				C622.311,221.023,622.604,220.019,622.764,220.185z"/>
			<path style="fill-rule:evenodd;clip-rule:evenodd;fill:#C57B59;" d="M670.429,218.183c-2.225,3.222-3.016,7.664-0.438,8.691
				c2.08,0.829,7.178-5.129,7.373-8.626C677.537,215.136,672.653,214.957,670.429,218.183z"/>
			<path style="fill-rule:evenodd;clip-rule:evenodd;fill:#C57B59;" d="M626.879,252.349c-2.363,0.785-4.69,0.564-6.018,0.273
				c-1.325-0.291,0.12,3.484,3.028,3.641C626.798,256.417,629.413,252.352,626.879,252.349z"/>
			<path style="fill-rule:evenodd;clip-rule:evenodd;fill:#454994;" d="M574.322,319.728c-0.667,5.576-1.238,11.177-1.72,16.053
				c-0.491,5.003-0.888,9.24-1.19,11.9c0.068-0.789,0.146-1.57,0.239-2.346c-2.009-0.487-3.885-1.456-5.628-2.753
				c-4.74-3.527-8.474-9.475-11.079-14.713c1.539-1.627,3.014-3.611,4.323-6.035c1.905-3.526,4.438-7.929,7.063-12.286
				c7.364-12.228,15.463-24.102,12.521-15.278C577.025,299.756,575.52,309.702,574.322,319.728z"/>
			<path style="fill-rule:evenodd;clip-rule:evenodd;fill:#693101;" d="M596.427,205.624c2.469-15.263,0.438-38.806,14.746-50.203
				c14.309-11.398,14.054,1.243,14.054,1.243s8.49-6.919,24.844-9.855c16.355-2.937,8.715,8.781,8.715,8.781
				s15.505,5.327,19.105,11.22c3.6,5.893-3.593,9.824-3.593,9.824s5.931,9.902,4.075,19.357
				c-1.855,9.456-11.474,27.141-11.474,27.141s-2.47-9.697-5.856-22.2c-1.906-7.036,5.844-13.653-6.304-16.64
				c-12.408-3.051-38.073-4.784-47.014-5.313c-2.506-0.148-5.015,7.11-5.951,9.03L596.427,205.624z"/>
			
				<linearGradient id="SVGID_00000094590754142782388110000012908365762841787017_" gradientUnits="userSpaceOnUse" x1="585.0847" y1="318.6711" x2="545.5847" y2="380.171">
				<stop  offset="0" style="stop-color:#E7B897"/>
				<stop  offset="1" style="stop-color:#C57B59"/>
			</linearGradient>
			<path style="fill-rule:evenodd;clip-rule:evenodd;fill:url(#SVGID_00000094590754142782388110000012908365762841787017_);" d="
				M600.681,304.407c1.813,1.68-2.98,13.613-5.582,17.466c-4.422,6.548-4.345,5.2-5.471,7.095
				c-8.225,13.841-9.596,48.104-31.494,46.135c-5.174-0.466-7.825-5.678-9.772-13.467c-3.626-14.509,11.063-19.223,16.322-24.572
				c2.378-2.421,10.598-9.541,10.611-13.512c0.007-1.537-0.752-3.083-1.1-4.785c-0.607-2.992-0.354-9.439-1.283-11.09
				c-0.857-1.519,0.586-2.296,1.9-2.347c2.285-0.09,3.287,5.585,4.324,4.755c1.898-1.521,4.126-8.339,4.902-9.565
				c0.947-1.499,1.482-3.393,2.727-4.729c0.824-0.882,2.771-0.836,3.117,0.113c0.745,2.033-3.679,11.677-3.679,11.677
				s3.15-5.281,5.095-9.378c0.821-1.729,2.621-1.569,3.25-1.267c1.908,0.916-3.199,11.194-3.199,11.194s1.716-2.168,3.226-4.488
				c0.962-1.477,1.729-3.376,2.285-3.653c0.477-0.239,1.97,0.48,1.939,1.576c-0.037,1.353-2.735,6.728-2.201,6.915
				c0.479,0.169,1.964-4.08,2.555-4.398C599.612,303.836,600.532,304.271,600.681,304.407z"/>
			<path style="fill-rule:evenodd;clip-rule:evenodd;fill:#454994;" d="M641.276,359.22c-0.254,14.234,1.262,24.967,5.556,29.979
				c4.295,5.01,2.582,13.623-4.672,21.061c7.424-2.846,13.962-6.758,18.748-11.709c0,0,3.431-3.439,0.992-7.131
				c-1.826-2.765-6.343-2.946-6.794-4.837c-0.356-1.483-6.738-6.875-5.995-13.063c0.071-0.594,0.15-1.195,0.236-1.8
				C646.176,368.52,642.952,362.906,641.276,359.22z"/>
			<path style="fill-rule:evenodd;clip-rule:evenodd;fill:#454994;" d="M635.239,344.588c-1.635,1.901-5.056,2.341-16.831,1.722
				c-20.674-1.088-30.468-1.813-30.468-1.813s-2.54,3.626,8.342,5.439c10.881,1.814,37.357,4.716,42.435,10.881
				c1.015,1.233,1.857,2.51,2.553,3.762c-0.028-1.68-0.024-3.421,0.005-5.217C639.028,354.574,637.167,349.425,635.239,344.588z"/>
		</g>
		<g>
			<path style="fill-rule:evenodd;clip-rule:evenodd;fill:#505199;" d="M571.41,120.602c-1.313,14.904,8.365,21.25,23.326,24.991
				c0,0-1.973-5.712,1.602-12.853c3.576-7.141,6.14-9.521,6.14-9.521L571.41,120.602z"/>
			<path style="fill-rule:evenodd;clip-rule:evenodd;fill:#505199;" d="M601.411,133.951c30.177,0,54.789-17.024,54.789-37.898
				c0-20.874-24.612-37.898-54.789-37.898c-30.176,0-54.788,17.024-54.788,37.898C546.623,116.927,571.235,133.951,601.411,133.951z
				"/>
			<text transform="matrix(1 0 0 1 568.0674 103.8189)"><tspan x="0" y="0" style="fill:#FFFFFF; font-family:'OpenSans-Bold'; font-size:25px;">h</tspan><tspan x="16.431" y="0" style="fill:#FFFFFF; font-family:'OpenSans-Bold'; font-size:25px;">ello</tspan></text>
		</g>
		<g>
			<g>
				<ellipse style="fill-rule:evenodd;clip-rule:evenodd;fill:#A81D21;" cx="313.3" cy="122.167" rx="54.788" ry="37.898"/>
				<path style="fill-rule:evenodd;clip-rule:evenodd;fill:#A81D21;" d="M267.969,131.31c-0.401,16.849,8.364,29.017,21.61,40.705
					c0,0-3.446-8.469,0.756-14.3c4.202-5.831,4.884-8.176,4.884-8.176L267.969,131.31z"/>
			</g>
			<g>
				<path style="fill:#FEFEFE;" d="M298.05,114.41h-2.792v18.407h-1.643v-10.519h-6.362v1.367c0,0.302-0.008,0.57-0.025,0.796
					c-0.017,0.243-0.05,0.436-0.109,0.595c-0.067,0.16-0.151,0.277-0.268,0.36c-0.126,0.076-0.276,0.117-0.478,0.117
					c-0.411,0-0.804-0.143-1.19-0.427c-0.386-0.285-0.729-0.62-1.023-1.023c-0.301-0.402-0.536-0.813-0.712-1.24
					c-0.185-0.427-0.276-0.779-0.276-1.064c0-0.234,0.059-0.419,0.159-0.545c0.117-0.134,0.26-0.234,0.444-0.31
					c0.192-0.075,0.411-0.108,0.654-0.134c0.251-0.017,0.511-0.025,0.788-0.025h8.398v-6.354h-12.305v-1.534h16.739V114.41z
					 M315.979,114.41h-2.8v18.407h-1.727v-7.753h-7.862v1.35c0,0.318-0.017,0.595-0.043,0.821c-0.025,0.226-0.075,0.402-0.159,0.536
					c-0.083,0.134-0.193,0.235-0.327,0.293c-0.134,0.067-0.318,0.101-0.544,0.101c-0.193,0-0.411-0.059-0.654-0.176
					c-0.243-0.109-0.495-0.259-0.738-0.452c-0.252-0.193-0.495-0.411-0.738-0.662c-0.243-0.252-0.461-0.512-0.645-0.788
					c-0.185-0.268-0.335-0.545-0.453-0.821c-0.108-0.285-0.168-0.545-0.168-0.796c0-0.218,0.042-0.394,0.118-0.52
					c0.083-0.126,0.192-0.218,0.327-0.277c0.134-0.059,0.285-0.092,0.453-0.101c0.168-0.009,0.344-0.009,0.537-0.009h1.308v-9.153
					h-4.736v-1.534h18.851V114.41z M303.59,114.41v9.153h7.862v-9.153H303.59z M329.54,123.53h-7.4
					c-0.251,0.151-0.503,0.26-0.738,0.318c-0.227,0.067-0.496,0.109-0.771,0.126l-0.034,0.067c0.856,1.492,1.86,2.867,3.034,4.107
					c1.174,1.249,2.49,2.406,3.932,3.487l-1.114,1.266c-1.166-0.855-2.238-1.785-3.22-2.799c-0.98-1.023-1.86-2.045-2.649-3.084
					c-0.796-1.039-1.492-2.063-2.103-3.068c-0.611-1.006-1.14-1.936-1.576-2.775l1.425-0.763c0.167,0.369,0.327,0.679,0.486,0.922
					c0.151,0.243,0.318,0.428,0.486,0.57c0.159,0.143,0.335,0.234,0.52,0.285c0.185,0.059,0.385,0.084,0.612,0.084
					c0.663,0,1.156-0.251,1.475-0.738c0.319-0.486,0.478-1.131,0.478-1.936c0-0.512-0.05-1.015-0.15-1.509
					c-0.102-0.494-0.218-0.964-0.369-1.408c-0.151-0.444-0.318-0.864-0.503-1.25c-0.185-0.394-0.36-0.729-0.519-1.022h-5.801v-1.534
					h14.684v1.534h-7.098c0.444,0.863,0.796,1.735,1.055,2.607c0.269,0.88,0.404,1.744,0.404,2.59c0,0.427-0.044,0.847-0.136,1.249
					c-0.084,0.402-0.218,0.788-0.394,1.14l0.017,0.025h6.094L329.54,123.53z M343.194,114.41h-2.824v18.407h-1.693v-12.162h-4.618
					c-0.629,0-1.199,0.042-1.718,0.117c-0.529,0.084-0.965,0.252-1.342,0.503c-0.378,0.243-0.662,0.595-0.871,1.064
					c-0.201,0.461-0.303,1.073-0.303,1.827c0,0.646,0.075,1.24,0.218,1.794c0.135,0.545,0.327,1.073,0.561,1.551
					c0.235,0.478,0.513,0.93,0.822,1.341c0.318,0.428,0.645,0.814,0.989,1.174c0.344,0.36,0.686,0.695,1.03,1.006
					c0.353,0.318,0.688,0.612,1.007,0.888l-1.04,1.174c-0.051-0.034-0.218-0.16-0.504-0.36c-0.275-0.21-0.611-0.495-1.014-0.864
					c-0.394-0.369-0.813-0.814-1.258-1.341c-0.452-0.528-0.854-1.123-1.231-1.793c-0.369-0.663-0.68-1.4-0.931-2.213
					c-0.252-0.813-0.378-1.685-0.378-2.632c0-0.93,0.136-1.71,0.395-2.313c0.26-0.612,0.638-1.106,1.115-1.467
					c0.477-0.36,1.064-0.62,1.744-0.771c0.679-0.142,1.44-0.218,2.287-0.218h5.038v-4.711h-12.992v-1.534h17.51V114.41z
					 M338.86,113.555c-0.578-1.073-1.089-1.986-1.524-2.757c-0.436-0.763-0.829-1.416-1.174-1.936
					c-0.344-0.528-0.662-0.948-0.956-1.266c-0.293-0.311-0.578-0.545-0.854-0.721c-0.276-0.168-0.57-0.277-0.881-0.327
					c-0.301-0.059-0.636-0.083-1.014-0.083h-2.632v-1.811h2.591c0.469,0,0.912,0.05,1.307,0.143s0.78,0.26,1.148,0.503
					c0.368,0.251,0.738,0.579,1.107,0.998c0.369,0.419,0.771,0.956,1.199,1.601c0.427,0.645,0.897,1.416,1.408,2.321
					c0.511,0.914,1.105,1.961,1.76,3.168L338.86,113.555z"/>
			</g>
		</g>
	</g>
</g>
</svg>
