<?xml version="1.0" encoding="UTF-8"?>
<svg id="Layer_1" data-name="Layer 1" xmlns="http://www.w3.org/2000/svg" viewBox="0 0 400 400">
  <defs>
    <style>
      .cls-1 {
        fill: #0a8442;
      }

      .cls-1, .cls-2 {
        stroke-width: 0px;
      }

      .cls-2 {
        fill: #fff;
      }
    </style>
  </defs>
  <ellipse class="cls-1" cx="200" cy="200" rx="125.4" ry="123.41"/>
  <g>
    <path class="cls-2" d="M147.02,200.08c0-23.17.29-46.35-.12-69.51-.21-11.79,8.15-21.17,20.79-20.8,20.33.6,40.69.14,61.03.17,12.5.01,19.8,7.16,19.9,19.86.15,17.83.04,35.67.05,53.51,0,28.67-.06,57.34.03,86.01.03,8.76-2.91,15.71-11.2,19.44-2.33,1.05-5.16,1.37-7.77,1.38-21.18.11-42.36.1-63.54.06-11.42-.02-19.11-7.67-19.15-19.11-.07-23.67-.02-47.34-.02-71.01ZM157.07,122.69v139.81h81.67V122.69h-81.67ZM197.59,282.34s0,.02,0,.02c1.33,0,2.65.04,3.98,0,3.32-.11,5.3-1.75,5.49-5.14.19-3.45-1.88-5.36-4.99-5.67-3.09-.31-6.52-.62-9.3.42-1.85.69-3.85,3.75-3.83,5.74.01,1.56,2.85,3.34,4.75,4.53.95.6,2.58.1,3.91.1Z"/>
    <path class="cls-2" d="M127.67,221.44c-2.02,1.66-3.68,3.02-5.36,4.39-17.81-14.17-20.87-49.69.17-68.9,1.53,1.61,3.08,3.24,4.93,5.18-7.72,8.34-11.99,18.05-12.04,29.3-.05,11.28,4.03,21.07,12.3,30.03Z"/>
    <path class="cls-2" d="M272.3,162.58c1.91-1.74,3.5-3.17,5.07-4.6,17.67,13.54,21.59,49.25.47,68.78-1.59-1.56-3.19-3.12-5.12-5,7.62-8.38,12.02-18.23,11.92-29.66-.09-11.23-4.16-21.05-12.35-29.53Z"/>
    <path class="cls-2" d="M137.07,211.25c-1.81,1.75-3.34,3.24-4.88,4.74-13.76-10.71-13.89-35.94.25-49.16,1.48,1.67,2.97,3.36,4.61,5.22-10.27,12.9-10.38,25.97.02,39.2Z"/>
    <path class="cls-2" d="M267.9,216.88c-1.85-1.61-3.47-3.02-5.24-4.57,10.46-13.23,10.76-26.3.26-39.59.7-.85,1.35-1.76,2.12-2.56.8-.83,1.7-1.55,2.53-2.3,13.96,10.33,14.12,35.64.33,49.02Z"/>
    <g>
      <path class="cls-2" d="M223.61,168.33c5.81,6.14,6.21,12.48,3.18,18.74-7.41,15.32-18.95,26.85-34.26,34.25-6.83,3.3-12.95,1.78-18.5-3.77,4.01-3.71,8-7.46,12.08-11.1.63-.57,1.86-1.13,2.53-.89,4.73,1.71,7.51-1.08,10.34-4.07,2.74-2.9,5.55-5.76,8.47-8.48,2.96-2.75,5.22-5.56,3.75-10.01-.25-.75.51-2.11,1.19-2.84,3.59-3.91,7.3-7.72,11.23-11.82Z"/>
      <path class="cls-2" d="M216.67,164.02c2.43,1.36,4.09,2.28,6.03,3.36-4.71,4.39-9.12,8.49-13.65,12.71-2.66-2.61-3.2-5.24.63-8.35,2.65-2.15,4.67-5.09,7-7.72Z"/>
      <path class="cls-2" d="M180.77,200.5c2.24,1.25,3.8,2.13,5.37,3.01-4.48,4.41-8.76,8.63-13.14,12.93-2.99-2.65-3.28-5.24.31-8.23,2.66-2.22,4.87-4.99,7.46-7.71Z"/>
    </g>
  </g>
</svg>