<?xml version="1.0" encoding="UTF-8"?>
<svg id="Layer_1" data-name="Layer 1" xmlns="http://www.w3.org/2000/svg" viewBox="0 0 400 400">
  <defs>
    <style>
      .cls-1 {
        fill: #0a8442;
      }

      .cls-1, .cls-2 {
        stroke-width: 0px;
      }

      .cls-2 {
        fill: #fff;
      }
    </style>
  </defs>
  <circle class="cls-1" cx="200" cy="200" r="153.66"/>
  <g>
    <path class="cls-2" d="M82.25,208.8c0-15.31.28-30.63-.15-45.93-.15-5.47,1.93-8.5,6.75-9.58,10.06-2.25,20.15-5.35,30.34-5.89,22.11-1.18,44.31-1.81,66.42-1.02,14.08.5,28.17,3.39,42.03,6.26,8.49,1.76,9,3.61,9,12.16,0,29.74-.21,59.49.17,89.23.08,6.35-2.29,9.94-7.9,11.04-12.53,2.45-25.13,5.83-37.78,6.19-24.93.7-49.93.1-74.86-1-9.3-.41-18.51-3.56-27.7-5.75-4.61-1.1-6.59-4.05-6.47-9.25.36-15.48.13-30.97.13-46.46Z"/>
    <path class="cls-2" d="M317.89,209.13c0,18.46.06,36.92-.03,55.38-.03,7.67-3.41,9.55-9.92,5.41-18.82-11.95-37.52-24.09-56.34-36.05-3.8-2.42-5.49-5.56-5.43-10.05.14-9.84.08-19.69,0-29.53-.03-4.39,1.53-7.64,5.37-10.09,18.81-11.97,37.48-24.15,56.3-36.11,6.85-4.35,9.96-2.52,9.99,5.65.07,18.46.02,36.92.02,55.38,0,0,.02,0,.02,0Z"/>
  </g>
  <g>
    <path class="cls-1" d="M151.74,223.62c.41.08.12.34.08.47-.65,2.04-1.3,4.08-2,6.1-.96,2.77-2.1,5.47-3.4,8.1-1.4,2.83-3,5.53-5.12,7.88-2.11,2.33-4.76,3.79-7.79,4.59-3.31.87-6.67.99-10.07.74-1.52-.11-3.02-.35-4.51-.62-.18-.03-.35-.1-.61-.19,1.02-1.13,1.99-2.2,2.97-3.27.97-1.09,2.17-1.98,2.94-3.25.03-.04.06-.08.1-.12.24-.12.27.18.39.21-.19-.32,0-.57.17-.82.17-.21.35-.43.52-.64.68-1.12,1.67-1.97,2.51-2.95.83-.78,1.81-1.36,2.75-1.99,1.01-.68,2-1.39,3.02-2.06,2.09-1.38,4.15-2.79,6.2-4.22,2.61-1.82,5.28-3.57,7.93-5.33,1.32-.87,2.59-1.81,3.94-2.64Z"/>
    <path class="cls-1" d="M151.74,223.62c-.16.6-.79.66-1.2.96-1.45,1.04-2.96,1.99-4.45,2.98-1.79,1.19-3.6,2.34-5.35,3.58-1.99,1.41-3.99,2.81-6.03,4.17-1.29.86-2.55,1.75-3.83,2.61-.99.66-1.99,1.29-2.91,2.04-.3.12-.5.44-.88.37-.18-.02-.32-.13-.45-.23-.4-.32-.85-.32-1.27-.11-.42.2-.63.59-.59,1.06.04.44-.11.7-.54.8-.21.02-.4.17-.62.17-.49-.01-.91,0-1.02.65-.05.29-.34.22-.58.09-.64-.35-1.22-.1-1.37.62-.11.52-.34.92-.84,1.13-.44.19-.72.03-.77-.43-.04-.36-.14-.72-.16-1.07-.02-.44-.14-.54-.56-.47-.59.1-1.17-.17-1.78-.04-.37.08-.57-.29-.5-.77.1-.68.41-1.29.63-1.93.28-.85.64-1.68,1.05-2.46.39-.73.66-1.53,1.26-2.18.37-.39.53-1,.7-1.55,3.03-4.63,6.81-8.35,12.3-9.9,2.89-.82,5.86-.92,8.85-.82,3.08.1,6.13.6,9.21.71.56.02,1.11,0,1.67,0Z"/>
    <path class="cls-1" d="M103,225.68c1.75,3.01,3.51,6.02,5.26,9.04.42.72.4.74-.45.72-3.19-.08-6.29-.6-9.29-1.7-4.42-1.63-7.13-4.84-8.64-9.2-1.34-3.86-2.08-7.85-2.57-11.89-.12-.98-.18-1.96-.26-2.94-.07-.21-.08-.41,0-.62.26-.05.41.12.55.27.59.59,1.22,1.14,1.76,1.78,1,1.17,2.13,2.22,3.18,3.34,1.17,1.25,2.33,2.5,3.53,3.72,1.44,1.46,2.89,2.92,4.34,4.37.75.76,1.43,1.59,2.2,2.33.22.21.34.49.38.79Z"/>
    <path class="cls-1" d="M103,225.68c-.69-1.09-1.7-1.9-2.56-2.84-1.47-1.6-3.07-3.08-4.59-4.64-2.05-2.11-4.1-4.21-6.09-6.37-.84-.91-1.72-1.77-2.58-2.68-.2.19-.07.4-.14.57-.18-.89-.19-.84.65-.63,1.56.39,3.17.47,4.76.66,3.83.46,7.64,1.04,11.01,3.12,2.21,1.36,3.87,3.28,5.16,5.51,2.15,3.69,3.38,7.65,3.34,11.96,0,.97-.08,1.95-.5,2.94-1.33-1.22-2.6-2.39-3.88-3.56-1.35-1.24-2.71-2.49-4.07-3.73-.15-.13-.26-.35-.52-.3Z"/>
    <path class="cls-1" d="M119.01,224.52c-1.31,2.24-2.57,4.47-3.61,6.82-1.31,2.95-2.32,5.98-2.56,9.22-.25,3.29.57,6.36,1.86,9.35,1.11,2.59,2.47,5.08,3.27,7.8,1.11,3.77,1.84,7.61,1.9,11.55.02,1.07.13,2.14.2,3.21.1,1.64-.37,2.47-1.89,3.11-1.54.65-3.1.59-4.6-.16-1.32-.67-1.84-1.73-1.49-3.2.46-1.98,1.02-3.93,1.52-5.9.36-1.43.61-2.89.71-4.36.11-1.82-.47-3.51-.95-5.21-.83-2.92-1.9-5.77-2.63-8.71-1.24-5-.56-9.81,1.57-14.45,1.5-3.27,3.63-6.1,6.2-8.6.17-.16.35-.31.52-.46Z"/>
    <path class="cls-1" d="M119.71,233.63c-.14.7-.09,1.49-.87,1.9-.17.09-.23.3-.27.5-.02.1.02.25-.04.31-.83,1.01-1.17,2.26-1.67,3.43-.26.61-.57,1.21-.66,1.89-.08.7.09.85.75.59.16-.07.28-.05.42.01.45.2.9.2,1.36.02.31-.12.46.08.38.34-.16.57.13,1.08.13,1.64,0,.32.42.24.62.09.3-.22.56-.51.61-.92.08-.66.65-1.13,1.31-1.11.13,0,.2.04.23.15.06.17.15.33.36.27.22-.07.12-.29.15-.45.06-.35.15-.67.61-.44.38.19.69-.24,1.06-.1.02.2-.14.29-.25.4-1.66,1.01-3.31,2.02-4.97,3.03-1.02.62-2.06,1.23-3.09,1.83-.59.35-.59.34-.61-.33-.08-3.04.76-5.88,1.97-8.62.68-1.55,1.45-3.05,2.44-4.43Z"/>
    <path class="cls-1" d="M123.97,242.16c.08-.13.17-.27.25-.4.3-.12.48-.25.4-.65-.12-.56.16-1.04.66-1.27.51-.24,1.07-.31,1.53.19.1.12.23.19.39.19-.38.64-1.07.85-1.66,1.19-.21.12-.46.21-.68.34-.29.14-.59.27-.88.41Z"/>
    <path class="cls-1" d="M124.21,244.17c.02.73-.57,1.08-1.02,1.46-.49.42-.93.88-1.31,1.38-.16.21-.33.39-.61.41.93-1.12,1.92-2.2,2.94-3.25Z"/>
    <path class="cls-1" d="M124.87,243.44c-.06.3-.12.6-.18.9-.13-.1-.26-.19-.39-.29.18-.21.31-.47.56-.61Z"/>
    <path class="cls-1" d="M120.76,243.21c.23-.59.63-.58,1.08-.46-.48-.18-.58.5-1.08.46Z"/>
  </g>
  <g>
    <path class="cls-1" d="M176.49,245.33c12.64,15.91,29.28,13.09,39.01-.01,7.6,6.15,12.83,13.61,12.78,23.98,0,1.16-2.23,3.21-3.54,3.31-5.27.41-10.59.31-15.89.23-7.37-.11-14.73-.44-22.1-.53-7.34-.1-14.68-.02-22.17-.02-2.02-12.53,4.24-20,11.92-26.95Z"/>
    <path class="cls-1" d="M214.63,233.08c-.01,10.51-8.57,19.45-18.53,19.36-10.07-.09-18.59-8.92-18.66-19.33-.07-10.46,8.42-19.51,18.37-19.59,10.39-.08,18.83,8.69,18.81,19.56Z"/>
  </g>
</svg>